<svg width="676" height="130" viewBox="0 0 676 130" fill="none" xmlns="http://www.w3.org/2000/svg">
<circle cx="15" cy="15" r="15" fill="white"/>
<path d="M16.3796 9.81818V20H15.1467V11.1108H15.087L12.6012 12.7614V11.5085L15.1467 9.81818H16.3796Z" fill="#475467"/>
<path d="M49.67 21.144C49.058 21.144 48.464 21.078 47.888 20.946C47.312 20.814 46.79 20.616 46.322 20.352C45.866 20.076 45.5 19.722 45.224 19.29C44.948 18.858 44.804 18.336 44.792 17.724H46.358C46.382 18.084 46.49 18.39 46.682 18.642C46.886 18.894 47.144 19.104 47.456 19.272C47.768 19.428 48.116 19.542 48.5 19.614C48.884 19.686 49.262 19.722 49.634 19.722C49.934 19.722 50.264 19.698 50.624 19.65C50.984 19.602 51.326 19.5 51.65 19.344C51.986 19.188 52.256 18.96 52.46 18.66C52.676 18.348 52.784 17.94 52.784 17.436C52.784 16.968 52.706 16.59 52.55 16.302C52.394 16.014 52.172 15.792 51.884 15.636C51.596 15.48 51.254 15.378 50.858 15.33C50.474 15.27 50.048 15.24 49.58 15.24H48.032V13.836H48.95C49.382 13.836 49.796 13.8 50.192 13.728C50.6 13.644 50.96 13.518 51.272 13.35C51.584 13.182 51.83 12.96 52.01 12.684C52.202 12.408 52.298 12.072 52.298 11.676C52.298 11.088 52.154 10.644 51.866 10.344C51.59 10.044 51.242 9.84 50.822 9.732C50.402 9.612 49.982 9.552 49.562 9.552C49.082 9.552 48.62 9.624 48.176 9.768C47.744 9.9 47.39 10.11 47.114 10.398C46.838 10.686 46.7 11.046 46.7 11.478H45.134C45.134 10.914 45.242 10.44 45.458 10.056C45.686 9.66 45.974 9.342 46.322 9.102C46.682 8.85 47.066 8.652 47.474 8.508C47.882 8.364 48.278 8.268 48.662 8.22C49.058 8.16 49.394 8.13 49.67 8.13C50.21 8.13 50.726 8.19 51.218 8.31C51.71 8.418 52.154 8.604 52.55 8.868C52.946 9.12 53.258 9.456 53.486 9.876C53.714 10.296 53.828 10.806 53.828 11.406C53.828 11.706 53.786 12.03 53.702 12.378C53.618 12.714 53.444 13.05 53.18 13.386C52.916 13.71 52.508 14.004 51.956 14.268C52.712 14.412 53.306 14.778 53.738 15.366C54.17 15.954 54.386 16.638 54.386 17.418C54.374 18.09 54.23 18.666 53.954 19.146C53.69 19.614 53.336 19.998 52.892 20.298C52.448 20.586 51.95 20.802 51.398 20.946C50.846 21.078 50.27 21.144 49.67 21.144ZM59.5156 21.108C59.0836 21.108 58.6636 21.054 58.2556 20.946C57.8596 20.826 57.4996 20.652 57.1756 20.424C56.8636 20.184 56.6116 19.89 56.4196 19.542C56.2396 19.182 56.1496 18.768 56.1496 18.3C56.1496 17.76 56.2456 17.304 56.4376 16.932C56.6416 16.56 56.9116 16.266 57.2476 16.05C57.5836 15.834 57.9736 15.678 58.4176 15.582C58.8616 15.486 59.3236 15.438 59.8036 15.438H62.5936C62.5936 14.898 62.5156 14.43 62.3596 14.034C62.2156 13.638 61.9756 13.332 61.6396 13.116C61.3036 12.888 60.8596 12.774 60.3076 12.774C59.9716 12.774 59.6596 12.81 59.3716 12.882C59.0836 12.954 58.8376 13.068 58.6336 13.224C58.4296 13.38 58.2796 13.59 58.1836 13.854H56.5456C56.6296 13.422 56.7916 13.056 57.0316 12.756C57.2836 12.444 57.5836 12.192 57.9316 12C58.2916 11.796 58.6756 11.646 59.0836 11.55C59.4916 11.454 59.8996 11.406 60.3076 11.406C61.2196 11.406 61.9516 11.592 62.5036 11.964C63.0556 12.324 63.4576 12.84 63.7096 13.512C63.9616 14.172 64.0876 14.958 64.0876 15.87V21H62.8096L62.7196 19.794C62.4556 20.154 62.1376 20.43 61.7656 20.622C61.3936 20.814 61.0096 20.94 60.6136 21C60.2296 21.072 59.8636 21.108 59.5156 21.108ZM59.6596 19.758C60.2596 19.758 60.7756 19.662 61.2076 19.47C61.6516 19.266 61.9936 18.972 62.2336 18.588C62.4736 18.204 62.5936 17.736 62.5936 17.184V16.716H60.9196C60.5236 16.716 60.1336 16.722 59.7496 16.734C59.3656 16.746 59.0176 16.794 58.7056 16.878C58.3936 16.962 58.1416 17.106 57.9496 17.31C57.7696 17.514 57.6796 17.808 57.6796 18.192C57.6796 18.552 57.7696 18.846 57.9496 19.074C58.1416 19.302 58.3876 19.476 58.6876 19.596C58.9996 19.704 59.3236 19.758 59.6596 19.758ZM66.458 21V11.514H73.01V12.864H67.988V21H66.458ZM74.6318 24.42V11.514H76.0898L76.1618 12.972C76.4858 12.456 76.9238 12.066 77.4758 11.802C78.0398 11.538 78.6458 11.406 79.2938 11.406C80.2538 11.406 81.0398 11.622 81.6518 12.054C82.2638 12.474 82.7138 13.05 83.0018 13.782C83.3018 14.514 83.4518 15.342 83.4518 16.266C83.4518 17.19 83.3018 18.018 83.0018 18.75C82.7018 19.482 82.2398 20.058 81.6158 20.478C80.9918 20.898 80.1938 21.108 79.2218 21.108C78.7418 21.108 78.3098 21.06 77.9258 20.964C77.5418 20.856 77.2058 20.706 76.9178 20.514C76.6298 20.322 76.3778 20.106 76.1618 19.866V24.42H74.6318ZM79.0958 19.758C79.7918 19.758 80.3438 19.602 80.7518 19.29C81.1598 18.966 81.4538 18.54 81.6338 18.012C81.8258 17.484 81.9218 16.902 81.9218 16.266C81.9218 15.618 81.8258 15.03 81.6338 14.502C81.4538 13.974 81.1538 13.554 80.7338 13.242C80.3138 12.93 79.7558 12.774 79.0598 12.774C78.4358 12.774 77.9018 12.936 77.4578 13.26C77.0258 13.572 76.6958 13.998 76.4678 14.538C76.2398 15.066 76.1258 15.648 76.1258 16.284C76.1258 16.944 76.2338 17.538 76.4498 18.066C76.6658 18.594 76.9958 19.008 77.4398 19.308C77.8838 19.608 78.4358 19.758 79.0958 19.758ZM85.7308 25.068V23.61C86.3188 23.61 86.7868 23.526 87.1348 23.358C87.4828 23.202 87.7708 22.95 87.9988 22.602C88.2388 22.266 88.4668 21.834 88.6828 21.306L84.5248 11.514H86.3248L89.5288 19.506L92.1568 11.514H93.8848L91.2208 18.984C91.0888 19.368 90.9388 19.8 90.7708 20.28C90.6028 20.76 90.4168 21.246 90.2128 21.738C90.0088 22.242 89.7808 22.704 89.5288 23.124C89.2888 23.556 89.0188 23.904 88.7188 24.168C88.4668 24.396 88.2208 24.576 87.9808 24.708C87.7408 24.84 87.4468 24.93 87.0988 24.978C86.7628 25.038 86.3068 25.068 85.7308 25.068ZM98.7417 21.108C98.2857 21.108 97.8297 21.066 97.3737 20.982C96.9177 20.898 96.4917 20.76 96.0957 20.568C95.7117 20.364 95.3997 20.094 95.1597 19.758C94.9197 19.41 94.7877 18.978 94.7637 18.462H96.2577C96.3177 18.786 96.4917 19.044 96.7797 19.236C97.0677 19.428 97.3917 19.566 97.7517 19.65C98.1237 19.722 98.4537 19.758 98.7417 19.758C99.0777 19.758 99.4197 19.722 99.7677 19.65C100.128 19.578 100.428 19.434 100.668 19.218C100.92 19.002 101.046 18.684 101.046 18.264C101.046 17.856 100.944 17.556 100.74 17.364C100.548 17.172 100.29 17.046 99.9657 16.986C99.6537 16.926 99.3117 16.896 98.9397 16.896H97.2477V15.546H98.6337C98.8617 15.546 99.0957 15.528 99.3357 15.492C99.5757 15.444 99.7977 15.372 100.002 15.276C100.206 15.168 100.368 15.018 100.488 14.826C100.62 14.634 100.686 14.388 100.686 14.088C100.686 13.752 100.59 13.488 100.398 13.296C100.206 13.104 99.9597 12.972 99.6597 12.9C99.3597 12.816 99.0537 12.774 98.7417 12.774C98.4537 12.774 98.1477 12.804 97.8237 12.864C97.5117 12.924 97.2417 13.044 97.0137 13.224C96.7857 13.392 96.6477 13.644 96.5997 13.98H95.0877C95.1117 13.332 95.3097 12.822 95.6817 12.45C96.0537 12.078 96.5157 11.814 97.0677 11.658C97.6197 11.49 98.1717 11.406 98.7237 11.406C99.1437 11.406 99.5577 11.448 99.9657 11.532C100.374 11.616 100.746 11.76 101.082 11.964C101.418 12.156 101.682 12.414 101.874 12.738C102.078 13.062 102.18 13.464 102.18 13.944C102.18 14.376 102.078 14.76 101.874 15.096C101.67 15.432 101.358 15.702 100.938 15.906C101.55 16.098 101.976 16.398 102.216 16.806C102.456 17.214 102.576 17.7 102.576 18.264C102.576 18.768 102.468 19.2 102.252 19.56C102.036 19.908 101.742 20.202 101.37 20.442C101.01 20.67 100.602 20.838 100.146 20.946C99.6897 21.054 99.2217 21.108 98.7417 21.108ZM104.55 21V11.514H106.08V18.786C106.164 18.618 106.278 18.438 106.422 18.246C106.566 18.042 106.68 17.886 106.764 17.778L111.354 11.514H112.866V21H111.336V13.728C111.24 13.908 111.132 14.076 111.012 14.232C110.904 14.388 110.802 14.532 110.706 14.664L106.044 21H104.55ZM117.486 21V12.864H114.228V11.514H122.274V12.864H119.016V21H117.486ZM127.744 21.108C126.736 21.108 125.902 20.904 125.242 20.496C124.582 20.076 124.09 19.5 123.766 18.768C123.442 18.036 123.28 17.202 123.28 16.266C123.28 15.318 123.448 14.484 123.784 13.764C124.132 13.032 124.636 12.456 125.296 12.036C125.956 11.616 126.766 11.406 127.726 11.406C128.434 11.406 129.052 11.544 129.58 11.82C130.12 12.084 130.564 12.444 130.912 12.9C131.272 13.356 131.53 13.866 131.686 14.43C131.854 14.994 131.926 15.576 131.902 16.176C131.89 16.284 131.884 16.392 131.884 16.5C131.884 16.608 131.878 16.716 131.866 16.824H124.828C124.876 17.376 125.014 17.874 125.242 18.318C125.47 18.762 125.794 19.116 126.214 19.38C126.634 19.632 127.156 19.758 127.78 19.758C128.092 19.758 128.404 19.722 128.716 19.65C129.04 19.566 129.328 19.428 129.58 19.236C129.844 19.044 130.03 18.786 130.138 18.462H131.704C131.56 19.074 131.29 19.578 130.894 19.974C130.498 20.358 130.024 20.646 129.472 20.838C128.92 21.018 128.344 21.108 127.744 21.108ZM124.864 15.492H130.354C130.342 14.952 130.222 14.478 129.994 14.07C129.766 13.662 129.454 13.344 129.058 13.116C128.674 12.888 128.212 12.774 127.672 12.774C127.084 12.774 126.586 12.9 126.178 13.152C125.782 13.404 125.476 13.734 125.26 14.142C125.044 14.55 124.912 15 124.864 15.492ZM138.81 21V11.514H140.34V18.786C140.424 18.618 140.538 18.438 140.682 18.246C140.826 18.042 140.94 17.886 141.024 17.778L145.614 11.514H147.126V21H145.596V13.728C145.5 13.908 145.392 14.076 145.272 14.232C145.164 14.388 145.062 14.532 144.966 14.664L140.304 21H138.81ZM152.97 21.108C152.514 21.108 152.058 21.066 151.602 20.982C151.146 20.898 150.72 20.76 150.324 20.568C149.94 20.364 149.628 20.094 149.388 19.758C149.148 19.41 149.016 18.978 148.992 18.462H150.486C150.546 18.786 150.72 19.044 151.008 19.236C151.296 19.428 151.62 19.566 151.98 19.65C152.352 19.722 152.682 19.758 152.97 19.758C153.306 19.758 153.648 19.722 153.996 19.65C154.356 19.578 154.656 19.434 154.896 19.218C155.148 19.002 155.274 18.684 155.274 18.264C155.274 17.856 155.172 17.556 154.968 17.364C154.776 17.172 154.518 17.046 154.194 16.986C153.882 16.926 153.54 16.896 153.168 16.896H151.476V15.546H152.862C153.09 15.546 153.324 15.528 153.564 15.492C153.804 15.444 154.026 15.372 154.23 15.276C154.434 15.168 154.596 15.018 154.716 14.826C154.848 14.634 154.914 14.388 154.914 14.088C154.914 13.752 154.818 13.488 154.626 13.296C154.434 13.104 154.188 12.972 153.888 12.9C153.588 12.816 153.282 12.774 152.97 12.774C152.682 12.774 152.376 12.804 152.052 12.864C151.74 12.924 151.47 13.044 151.242 13.224C151.014 13.392 150.876 13.644 150.828 13.98H149.316C149.34 13.332 149.538 12.822 149.91 12.45C150.282 12.078 150.744 11.814 151.296 11.658C151.848 11.49 152.4 11.406 152.952 11.406C153.372 11.406 153.786 11.448 154.194 11.532C154.602 11.616 154.974 11.76 155.31 11.964C155.646 12.156 155.91 12.414 156.102 12.738C156.306 13.062 156.408 13.464 156.408 13.944C156.408 14.376 156.306 14.76 156.102 15.096C155.898 15.432 155.586 15.702 155.166 15.906C155.778 16.098 156.204 16.398 156.444 16.806C156.684 17.214 156.804 17.7 156.804 18.264C156.804 18.768 156.696 19.2 156.48 19.56C156.264 19.908 155.97 20.202 155.598 20.442C155.238 20.67 154.83 20.838 154.374 20.946C153.918 21.054 153.45 21.108 152.97 21.108ZM162.918 21.108C161.922 21.108 161.088 20.904 160.416 20.496C159.744 20.076 159.24 19.5 158.904 18.768C158.58 18.036 158.418 17.202 158.418 16.266C158.418 15.318 158.58 14.484 158.904 13.764C159.24 13.032 159.744 12.456 160.416 12.036C161.088 11.616 161.934 11.406 162.954 11.406C163.95 11.406 164.778 11.616 165.438 12.036C166.11 12.456 166.608 13.032 166.932 13.764C167.268 14.484 167.436 15.318 167.436 16.266C167.436 17.202 167.268 18.036 166.932 18.768C166.596 19.5 166.092 20.076 165.42 20.496C164.76 20.904 163.926 21.108 162.918 21.108ZM162.918 19.758C163.614 19.758 164.178 19.602 164.61 19.29C165.054 18.978 165.378 18.558 165.582 18.03C165.798 17.502 165.906 16.914 165.906 16.266C165.906 15.618 165.798 15.03 165.582 14.502C165.378 13.974 165.054 13.554 164.61 13.242C164.178 12.93 163.614 12.774 162.918 12.774C162.234 12.774 161.67 12.93 161.226 13.242C160.794 13.554 160.47 13.974 160.254 14.502C160.05 15.03 159.948 15.618 159.948 16.266C159.948 16.914 160.05 17.502 160.254 18.03C160.47 18.558 160.794 18.978 161.226 19.29C161.67 19.602 162.234 19.758 162.918 19.758ZM173.655 21.108C173.055 21.108 172.521 21.024 172.053 20.856C171.585 20.676 171.183 20.43 170.847 20.118C170.511 19.794 170.235 19.416 170.019 18.984C169.803 18.54 169.641 18.06 169.533 17.544C169.425 17.028 169.371 16.482 169.371 15.906C169.371 14.982 169.389 14.124 169.425 13.332C169.473 12.528 169.605 11.814 169.821 11.19C170.037 10.554 170.403 10.026 170.919 9.606C171.435 9.186 172.161 8.892 173.097 8.724C173.577 8.64 174.051 8.568 174.519 8.508C174.987 8.448 175.461 8.388 175.941 8.328C176.097 8.304 176.259 8.28 176.427 8.256C176.595 8.232 176.769 8.202 176.949 8.166C177.141 8.13 177.321 8.1 177.489 8.076V9.48C177.357 9.528 177.213 9.57 177.057 9.606C176.913 9.63 176.757 9.654 176.589 9.678C176.433 9.702 176.271 9.72 176.103 9.732C175.947 9.744 175.791 9.762 175.635 9.786C175.479 9.798 175.329 9.816 175.185 9.84C174.765 9.888 174.321 9.936 173.853 9.984C173.385 10.02 172.941 10.116 172.521 10.272C172.113 10.416 171.765 10.698 171.477 11.118C171.333 11.334 171.207 11.592 171.099 11.892C171.003 12.192 170.931 12.498 170.883 12.81C170.847 13.11 170.823 13.398 170.811 13.674C171.051 13.338 171.345 13.068 171.693 12.864C172.041 12.648 172.413 12.492 172.809 12.396C173.205 12.288 173.583 12.234 173.943 12.234C174.807 12.234 175.539 12.414 176.139 12.774C176.739 13.122 177.195 13.62 177.507 14.268C177.819 14.916 177.975 15.672 177.975 16.536C177.975 17.4 177.807 18.18 177.471 18.876C177.135 19.56 176.643 20.106 175.995 20.514C175.359 20.91 174.579 21.108 173.655 21.108ZM173.691 19.758C174.291 19.758 174.795 19.614 175.203 19.326C175.611 19.038 175.917 18.654 176.121 18.174C176.337 17.694 176.445 17.166 176.445 16.59C176.445 16.026 176.337 15.522 176.121 15.078C175.917 14.622 175.611 14.262 175.203 13.998C174.807 13.734 174.315 13.602 173.727 13.602C173.151 13.602 172.653 13.74 172.233 14.016C171.825 14.292 171.507 14.664 171.279 15.132C171.063 15.588 170.955 16.086 170.955 16.626C170.955 17.178 171.057 17.694 171.261 18.174C171.465 18.654 171.765 19.038 172.161 19.326C172.569 19.614 173.079 19.758 173.691 19.758ZM180.03 24.42V11.514H181.488L181.56 12.972C181.884 12.456 182.322 12.066 182.874 11.802C183.438 11.538 184.044 11.406 184.692 11.406C185.652 11.406 186.438 11.622 187.05 12.054C187.662 12.474 188.112 13.05 188.4 13.782C188.7 14.514 188.85 15.342 188.85 16.266C188.85 17.19 188.7 18.018 188.4 18.75C188.1 19.482 187.638 20.058 187.014 20.478C186.39 20.898 185.592 21.108 184.62 21.108C184.14 21.108 183.708 21.06 183.324 20.964C182.94 20.856 182.604 20.706 182.316 20.514C182.028 20.322 181.776 20.106 181.56 19.866V24.42H180.03ZM184.494 19.758C185.19 19.758 185.742 19.602 186.15 19.29C186.558 18.966 186.852 18.54 187.032 18.012C187.224 17.484 187.32 16.902 187.32 16.266C187.32 15.618 187.224 15.03 187.032 14.502C186.852 13.974 186.552 13.554 186.132 13.242C185.712 12.93 185.154 12.774 184.458 12.774C183.834 12.774 183.3 12.936 182.856 13.26C182.424 13.572 182.094 13.998 181.866 14.538C181.638 15.066 181.524 15.648 181.524 16.284C181.524 16.944 181.632 17.538 181.848 18.066C182.064 18.594 182.394 19.008 182.838 19.308C183.282 19.608 183.834 19.758 184.494 19.758ZM193.865 21.108C193.433 21.108 193.013 21.054 192.605 20.946C192.209 20.826 191.849 20.652 191.525 20.424C191.213 20.184 190.961 19.89 190.769 19.542C190.589 19.182 190.499 18.768 190.499 18.3C190.499 17.76 190.595 17.304 190.787 16.932C190.991 16.56 191.261 16.266 191.597 16.05C191.933 15.834 192.323 15.678 192.767 15.582C193.211 15.486 193.673 15.438 194.153 15.438H196.943C196.943 14.898 196.865 14.43 196.709 14.034C196.565 13.638 196.325 13.332 195.989 13.116C195.653 12.888 195.209 12.774 194.657 12.774C194.321 12.774 194.009 12.81 193.721 12.882C193.433 12.954 193.187 13.068 192.983 13.224C192.779 13.38 192.629 13.59 192.533 13.854H190.895C190.979 13.422 191.141 13.056 191.381 12.756C191.633 12.444 191.933 12.192 192.281 12C192.641 11.796 193.025 11.646 193.433 11.55C193.841 11.454 194.249 11.406 194.657 11.406C195.569 11.406 196.301 11.592 196.853 11.964C197.405 12.324 197.807 12.84 198.059 13.512C198.311 14.172 198.437 14.958 198.437 15.87V21H197.159L197.069 19.794C196.805 20.154 196.487 20.43 196.115 20.622C195.743 20.814 195.359 20.94 194.963 21C194.579 21.072 194.213 21.108 193.865 21.108ZM194.009 19.758C194.609 19.758 195.125 19.662 195.557 19.47C196.001 19.266 196.343 18.972 196.583 18.588C196.823 18.204 196.943 17.736 196.943 17.184V16.716H195.269C194.873 16.716 194.483 16.722 194.099 16.734C193.715 16.746 193.367 16.794 193.055 16.878C192.743 16.962 192.491 17.106 192.299 17.31C192.119 17.514 192.029 17.808 192.029 18.192C192.029 18.552 192.119 18.846 192.299 19.074C192.491 19.302 192.737 19.476 193.037 19.596C193.349 19.704 193.673 19.758 194.009 19.758ZM199.854 21L202.932 16.032L200.124 11.514H201.762L204.264 15.618H205.686V11.514H207.216V15.618H208.638L211.14 11.514H212.778L209.97 16.032L213.048 21H211.266L208.8 16.914H207.216V21H205.686V16.914H204.102L201.636 21H199.854ZM218.429 21.108C217.421 21.108 216.587 20.904 215.927 20.496C215.267 20.076 214.775 19.5 214.451 18.768C214.127 18.036 213.965 17.202 213.965 16.266C213.965 15.318 214.133 14.484 214.469 13.764C214.817 13.032 215.321 12.456 215.981 12.036C216.641 11.616 217.451 11.406 218.411 11.406C219.119 11.406 219.737 11.544 220.265 11.82C220.805 12.084 221.249 12.444 221.597 12.9C221.957 13.356 222.215 13.866 222.371 14.43C222.539 14.994 222.611 15.576 222.587 16.176C222.575 16.284 222.569 16.392 222.569 16.5C222.569 16.608 222.563 16.716 222.551 16.824H215.513C215.561 17.376 215.699 17.874 215.927 18.318C216.155 18.762 216.479 19.116 216.899 19.38C217.319 19.632 217.841 19.758 218.465 19.758C218.777 19.758 219.089 19.722 219.401 19.65C219.725 19.566 220.013 19.428 220.265 19.236C220.529 19.044 220.715 18.786 220.823 18.462H222.389C222.245 19.074 221.975 19.578 221.579 19.974C221.183 20.358 220.709 20.646 220.157 20.838C219.605 21.018 219.029 21.108 218.429 21.108ZM215.549 15.492H221.039C221.027 14.952 220.907 14.478 220.679 14.07C220.451 13.662 220.139 13.344 219.743 13.116C219.359 12.888 218.897 12.774 218.357 12.774C217.769 12.774 217.271 12.9 216.863 13.152C216.467 13.404 216.161 13.734 215.945 14.142C215.729 14.55 215.597 15 215.549 15.492ZM224.644 21V11.514H226.174V15.672H230.926V11.514H232.456V21H230.926V17.022H226.174V21H224.644ZM234.874 21V11.514H236.404V18.786C236.488 18.618 236.602 18.438 236.746 18.246C236.89 18.042 237.004 17.886 237.088 17.778L241.678 11.514H243.19V21H241.66V13.728C241.564 13.908 241.456 14.076 241.336 14.232C241.228 14.388 241.126 14.532 241.03 14.664L236.368 21H234.874ZM249.701 21.108C248.693 21.108 247.859 20.904 247.199 20.496C246.539 20.076 246.047 19.5 245.723 18.768C245.399 18.036 245.237 17.202 245.237 16.266C245.237 15.318 245.405 14.484 245.741 13.764C246.089 13.032 246.593 12.456 247.253 12.036C247.913 11.616 248.723 11.406 249.683 11.406C250.391 11.406 251.009 11.544 251.537 11.82C252.077 12.084 252.521 12.444 252.869 12.9C253.229 13.356 253.487 13.866 253.643 14.43C253.811 14.994 253.883 15.576 253.859 16.176C253.847 16.284 253.841 16.392 253.841 16.5C253.841 16.608 253.835 16.716 253.823 16.824H246.785C246.833 17.376 246.971 17.874 247.199 18.318C247.427 18.762 247.751 19.116 248.171 19.38C248.591 19.632 249.113 19.758 249.737 19.758C250.049 19.758 250.361 19.722 250.673 19.65C250.997 19.566 251.285 19.428 251.537 19.236C251.801 19.044 251.987 18.786 252.095 18.462H253.661C253.517 19.074 253.247 19.578 252.851 19.974C252.455 20.358 251.981 20.646 251.429 20.838C250.877 21.018 250.301 21.108 249.701 21.108ZM246.821 15.492H252.311C252.299 14.952 252.179 14.478 251.951 14.07C251.723 13.662 251.411 13.344 251.015 13.116C250.631 12.888 250.169 12.774 249.629 12.774C249.041 12.774 248.543 12.9 248.135 13.152C247.739 13.404 247.433 13.734 247.217 14.142C247.001 14.55 246.869 15 246.821 15.492Z" fill="white"/>
<circle cx="15" cy="65" r="15" fill="white"/>
<path d="M11.8157 70V69.1051L15.1765 65.4261C15.5709 64.9953 15.8957 64.6207 16.1509 64.3026C16.4061 63.9811 16.5951 63.6795 16.7177 63.3977C16.8436 63.1127 16.9066 62.8144 16.9066 62.5028C16.9066 62.1449 16.8204 61.835 16.6481 61.5732C16.479 61.3113 16.247 61.1091 15.9521 60.9666C15.6571 60.8241 15.3256 60.7528 14.9577 60.7528C14.5666 60.7528 14.2253 60.834 13.9336 60.9964C13.6452 61.1555 13.4215 61.3793 13.2624 61.6676C13.1067 61.956 13.0288 62.294 13.0288 62.6818H11.8555C11.8555 62.0852 11.993 61.5616 12.2681 61.1108C12.5432 60.66 12.9177 60.3087 13.3917 60.0568C13.869 59.8049 14.4042 59.679 14.9975 59.679C15.5941 59.679 16.1228 59.8049 16.5835 60.0568C17.0442 60.3087 17.4054 60.6484 17.6673 61.076C17.9291 61.5036 18.06 61.9792 18.06 62.5028C18.06 62.8774 17.9921 63.2436 17.8562 63.6016C17.7236 63.9562 17.4916 64.3523 17.1602 64.7898C16.832 65.224 16.3763 65.7543 15.793 66.3807L13.506 68.8267V68.9062H18.239V70H11.8157Z" fill="#475467"/>
<path d="M44.396 74.51V69.578C44.828 69.578 45.152 69.5 45.368 69.344C45.596 69.176 45.77 68.954 45.89 68.678C45.986 68.438 46.07 68.15 46.142 67.814C46.214 67.466 46.274 67.094 46.322 66.698C46.382 66.29 46.424 65.882 46.448 65.474C46.532 64.274 46.592 63.074 46.628 61.874C46.664 60.674 46.688 59.474 46.7 58.274H54.836V69.578H56.366V74.51H54.8V71H45.962V74.51H44.396ZM47.294 69.578H53.27V59.696H48.23L48.068 64.646C48.056 64.934 48.038 65.276 48.014 65.672C48.002 66.068 47.966 66.488 47.906 66.932C47.858 67.364 47.786 67.808 47.69 68.264C47.594 68.72 47.462 69.158 47.294 69.578ZM62.1077 71.108C61.1117 71.108 60.2777 70.904 59.6057 70.496C58.9337 70.076 58.4297 69.5 58.0937 68.768C57.7697 68.036 57.6077 67.202 57.6077 66.266C57.6077 65.318 57.7697 64.484 58.0937 63.764C58.4297 63.032 58.9337 62.456 59.6057 62.036C60.2777 61.616 61.1237 61.406 62.1437 61.406C63.1397 61.406 63.9677 61.616 64.6277 62.036C65.2997 62.456 65.7977 63.032 66.1217 63.764C66.4577 64.484 66.6257 65.318 66.6257 66.266C66.6257 67.202 66.4577 68.036 66.1217 68.768C65.7857 69.5 65.2817 70.076 64.6097 70.496C63.9497 70.904 63.1157 71.108 62.1077 71.108ZM62.1077 69.758C62.8037 69.758 63.3677 69.602 63.7997 69.29C64.2437 68.978 64.5677 68.558 64.7717 68.03C64.9877 67.502 65.0957 66.914 65.0957 66.266C65.0957 65.618 64.9877 65.03 64.7717 64.502C64.5677 63.974 64.2437 63.554 63.7997 63.242C63.3677 62.93 62.8037 62.774 62.1077 62.774C61.4237 62.774 60.8597 62.93 60.4157 63.242C59.9837 63.554 59.6597 63.974 59.4437 64.502C59.2397 65.03 59.1377 65.618 59.1377 66.266C59.1377 66.914 59.2397 67.502 59.4437 68.03C59.6597 68.558 59.9837 68.978 60.4157 69.29C60.8597 69.602 61.4237 69.758 62.1077 69.758ZM67.543 71L70.621 66.032L67.813 61.514H69.451L71.953 65.618H73.375V61.514H74.905V65.618H76.327L78.829 61.514H80.467L77.659 66.032L80.737 71H78.955L76.489 66.914H74.905V71H73.375V66.914H71.791L69.325 71H67.543ZM81.3804 73.916V69.668C81.7284 69.668 82.0044 69.572 82.2084 69.38C82.4244 69.188 82.5924 68.936 82.7124 68.624C82.8324 68.312 82.9224 67.976 82.9824 67.616C83.0424 67.244 83.0904 66.89 83.1264 66.554C83.1864 66.002 83.2224 65.456 83.2344 64.916C83.2584 64.364 83.2704 63.926 83.2704 63.602C83.2824 63.254 83.2884 62.906 83.2884 62.558C83.2884 62.21 83.2884 61.862 83.2884 61.514H90.0204V69.668H91.2624V73.916H89.7864V71H82.8564V73.916H81.3804ZM83.8104 69.668H88.4904V62.864H84.7464C84.7344 63.368 84.7224 63.932 84.7104 64.556C84.6984 65.18 84.6744 65.762 84.6384 66.302C84.6264 66.614 84.5964 66.968 84.5484 67.364C84.5124 67.76 84.4404 68.162 84.3324 68.57C84.2244 68.966 84.0504 69.332 83.8104 69.668ZM92.8603 71V61.514H94.3903V68.786C94.4743 68.618 94.5883 68.438 94.7323 68.246C94.8763 68.042 94.9903 67.886 95.0743 67.778L99.6643 61.514H101.176V71H99.6463V63.728C99.5503 63.908 99.4423 64.076 99.3223 64.232C99.2143 64.388 99.1123 64.532 99.0163 64.664L94.3543 71H92.8603ZM105.797 71V62.864H102.539V61.514H110.585V62.864H107.327V71H105.797ZM116.054 71.108C115.046 71.108 114.212 70.904 113.552 70.496C112.892 70.076 112.4 69.5 112.076 68.768C111.752 68.036 111.59 67.202 111.59 66.266C111.59 65.318 111.758 64.484 112.094 63.764C112.442 63.032 112.946 62.456 113.606 62.036C114.266 61.616 115.076 61.406 116.036 61.406C116.744 61.406 117.362 61.544 117.89 61.82C118.43 62.084 118.874 62.444 119.222 62.9C119.582 63.356 119.84 63.866 119.996 64.43C120.164 64.994 120.236 65.576 120.212 66.176C120.2 66.284 120.194 66.392 120.194 66.5C120.194 66.608 120.188 66.716 120.176 66.824H113.138C113.186 67.376 113.324 67.874 113.552 68.318C113.78 68.762 114.104 69.116 114.524 69.38C114.944 69.632 115.466 69.758 116.09 69.758C116.402 69.758 116.714 69.722 117.026 69.65C117.35 69.566 117.638 69.428 117.89 69.236C118.154 69.044 118.34 68.786 118.448 68.462H120.014C119.87 69.074 119.6 69.578 119.204 69.974C118.808 70.358 118.334 70.646 117.782 70.838C117.23 71.018 116.654 71.108 116.054 71.108ZM113.174 65.492H118.664C118.652 64.952 118.532 64.478 118.304 64.07C118.076 63.662 117.764 63.344 117.368 63.116C116.984 62.888 116.522 62.774 115.982 62.774C115.394 62.774 114.896 62.9 114.488 63.152C114.092 63.404 113.786 63.734 113.57 64.142C113.354 64.55 113.222 65 113.174 65.492ZM126.319 71.108C125.323 71.108 124.495 70.904 123.835 70.496C123.187 70.076 122.701 69.5 122.377 68.768C122.065 68.036 121.909 67.208 121.909 66.284C121.909 65.384 122.071 64.568 122.395 63.836C122.731 63.092 123.235 62.504 123.907 62.072C124.591 61.628 125.455 61.406 126.499 61.406C127.147 61.406 127.723 61.514 128.227 61.73C128.743 61.946 129.169 62.264 129.505 62.684C129.841 63.092 130.075 63.608 130.207 64.232H128.641C128.461 63.704 128.173 63.332 127.777 63.116C127.393 62.888 126.937 62.774 126.409 62.774C125.689 62.774 125.113 62.942 124.681 63.278C124.249 63.614 123.931 64.052 123.727 64.592C123.535 65.12 123.438 65.684 123.438 66.284C123.438 66.908 123.541 67.484 123.745 68.012C123.949 68.54 124.267 68.966 124.699 69.29C125.131 69.602 125.689 69.758 126.373 69.758C126.877 69.758 127.351 69.65 127.795 69.434C128.251 69.218 128.551 68.834 128.695 68.282H130.279C130.159 68.93 129.901 69.464 129.505 69.884C129.121 70.304 128.647 70.616 128.083 70.82C127.531 71.012 126.943 71.108 126.319 71.108ZM132.218 71V61.514H133.784V65.132H135.872C136.436 65.132 136.94 65.18 137.384 65.276C137.84 65.36 138.23 65.51 138.554 65.726C138.878 65.942 139.124 66.236 139.292 66.608C139.472 66.968 139.562 67.43 139.562 67.994C139.562 68.51 139.472 68.96 139.292 69.344C139.112 69.716 138.86 70.028 138.536 70.28C138.212 70.52 137.822 70.7 137.366 70.82C136.922 70.94 136.43 71 135.89 71H132.218ZM133.784 69.668H134.684C135.104 69.668 135.506 69.656 135.89 69.632C136.286 69.608 136.646 69.548 136.97 69.452C137.294 69.356 137.546 69.2 137.726 68.984C137.918 68.756 138.014 68.444 138.014 68.048C138.014 67.664 137.936 67.37 137.78 67.166C137.636 66.95 137.444 66.794 137.204 66.698C136.964 66.59 136.7 66.524 136.412 66.5C136.136 66.476 135.86 66.464 135.584 66.464H133.784V69.668ZM150.543 71.108C149.547 71.108 148.713 70.904 148.041 70.496C147.369 70.076 146.865 69.5 146.529 68.768C146.205 68.036 146.043 67.202 146.043 66.266C146.043 65.318 146.205 64.484 146.529 63.764C146.865 63.032 147.369 62.456 148.041 62.036C148.713 61.616 149.559 61.406 150.579 61.406C151.575 61.406 152.403 61.616 153.063 62.036C153.735 62.456 154.233 63.032 154.557 63.764C154.893 64.484 155.061 65.318 155.061 66.266C155.061 67.202 154.893 68.036 154.557 68.768C154.221 69.5 153.717 70.076 153.045 70.496C152.385 70.904 151.551 71.108 150.543 71.108ZM150.543 69.758C151.239 69.758 151.803 69.602 152.235 69.29C152.679 68.978 153.003 68.558 153.207 68.03C153.423 67.502 153.531 66.914 153.531 66.266C153.531 65.618 153.423 65.03 153.207 64.502C153.003 63.974 152.679 63.554 152.235 63.242C151.803 62.93 151.239 62.774 150.543 62.774C149.859 62.774 149.295 62.93 148.851 63.242C148.419 63.554 148.095 63.974 147.879 64.502C147.675 65.03 147.573 65.618 147.573 66.266C147.573 66.914 147.675 67.502 147.879 68.03C148.095 68.558 148.419 68.978 148.851 69.29C149.295 69.602 149.859 69.758 150.543 69.758ZM161.28 71.108C160.68 71.108 160.146 71.024 159.678 70.856C159.21 70.676 158.808 70.43 158.472 70.118C158.136 69.794 157.86 69.416 157.644 68.984C157.428 68.54 157.266 68.06 157.158 67.544C157.05 67.028 156.996 66.482 156.996 65.906C156.996 64.982 157.014 64.124 157.05 63.332C157.098 62.528 157.23 61.814 157.446 61.19C157.662 60.554 158.028 60.026 158.544 59.606C159.06 59.186 159.786 58.892 160.722 58.724C161.202 58.64 161.676 58.568 162.144 58.508C162.612 58.448 163.086 58.388 163.566 58.328C163.722 58.304 163.884 58.28 164.052 58.256C164.22 58.232 164.394 58.202 164.574 58.166C164.766 58.13 164.946 58.1 165.114 58.076V59.48C164.982 59.528 164.838 59.57 164.682 59.606C164.538 59.63 164.382 59.654 164.214 59.678C164.058 59.702 163.896 59.72 163.728 59.732C163.572 59.744 163.416 59.762 163.26 59.786C163.104 59.798 162.954 59.816 162.81 59.84C162.39 59.888 161.946 59.936 161.478 59.984C161.01 60.02 160.566 60.116 160.146 60.272C159.738 60.416 159.39 60.698 159.102 61.118C158.958 61.334 158.832 61.592 158.724 61.892C158.628 62.192 158.556 62.498 158.508 62.81C158.472 63.11 158.448 63.398 158.436 63.674C158.676 63.338 158.97 63.068 159.318 62.864C159.666 62.648 160.038 62.492 160.434 62.396C160.83 62.288 161.208 62.234 161.568 62.234C162.432 62.234 163.164 62.414 163.764 62.774C164.364 63.122 164.82 63.62 165.132 64.268C165.444 64.916 165.6 65.672 165.6 66.536C165.6 67.4 165.432 68.18 165.096 68.876C164.76 69.56 164.268 70.106 163.62 70.514C162.984 70.91 162.204 71.108 161.28 71.108ZM161.316 69.758C161.916 69.758 162.42 69.614 162.828 69.326C163.236 69.038 163.542 68.654 163.746 68.174C163.962 67.694 164.07 67.166 164.07 66.59C164.07 66.026 163.962 65.522 163.746 65.078C163.542 64.622 163.236 64.262 162.828 63.998C162.432 63.734 161.94 63.602 161.352 63.602C160.776 63.602 160.278 63.74 159.858 64.016C159.45 64.292 159.132 64.664 158.904 65.132C158.688 65.588 158.58 66.086 158.58 66.626C158.58 67.178 158.682 67.694 158.886 68.174C159.09 68.654 159.39 69.038 159.786 69.326C160.194 69.614 160.704 69.758 161.316 69.758ZM167.655 74.42V61.514H169.113L169.185 62.972C169.509 62.456 169.947 62.066 170.499 61.802C171.063 61.538 171.669 61.406 172.317 61.406C173.277 61.406 174.063 61.622 174.675 62.054C175.287 62.474 175.737 63.05 176.025 63.782C176.325 64.514 176.475 65.342 176.475 66.266C176.475 67.19 176.325 68.018 176.025 68.75C175.725 69.482 175.263 70.058 174.639 70.478C174.015 70.898 173.217 71.108 172.245 71.108C171.765 71.108 171.333 71.06 170.949 70.964C170.565 70.856 170.229 70.706 169.941 70.514C169.653 70.322 169.401 70.106 169.185 69.866V74.42H167.655ZM172.119 69.758C172.815 69.758 173.367 69.602 173.775 69.29C174.183 68.966 174.477 68.54 174.657 68.012C174.849 67.484 174.945 66.902 174.945 66.266C174.945 65.618 174.849 65.03 174.657 64.502C174.477 63.974 174.177 63.554 173.757 63.242C173.337 62.93 172.779 62.774 172.083 62.774C171.459 62.774 170.925 62.936 170.481 63.26C170.049 63.572 169.719 63.998 169.491 64.538C169.263 65.066 169.149 65.648 169.149 66.284C169.149 66.944 169.257 67.538 169.473 68.066C169.689 68.594 170.019 69.008 170.463 69.308C170.907 69.608 171.459 69.758 172.119 69.758ZM181.49 71.108C181.058 71.108 180.638 71.054 180.23 70.946C179.834 70.826 179.474 70.652 179.15 70.424C178.838 70.184 178.586 69.89 178.394 69.542C178.214 69.182 178.124 68.768 178.124 68.3C178.124 67.76 178.22 67.304 178.412 66.932C178.616 66.56 178.886 66.266 179.222 66.05C179.558 65.834 179.948 65.678 180.392 65.582C180.836 65.486 181.298 65.438 181.778 65.438H184.568C184.568 64.898 184.49 64.43 184.334 64.034C184.19 63.638 183.95 63.332 183.614 63.116C183.278 62.888 182.834 62.774 182.282 62.774C181.946 62.774 181.634 62.81 181.346 62.882C181.058 62.954 180.812 63.068 180.608 63.224C180.404 63.38 180.254 63.59 180.158 63.854H178.52C178.604 63.422 178.766 63.056 179.006 62.756C179.258 62.444 179.558 62.192 179.906 62C180.266 61.796 180.65 61.646 181.058 61.55C181.466 61.454 181.874 61.406 182.282 61.406C183.194 61.406 183.926 61.592 184.478 61.964C185.03 62.324 185.432 62.84 185.684 63.512C185.936 64.172 186.062 64.958 186.062 65.87V71H184.784L184.694 69.794C184.43 70.154 184.112 70.43 183.74 70.622C183.368 70.814 182.984 70.94 182.588 71C182.204 71.072 181.838 71.108 181.49 71.108ZM181.634 69.758C182.234 69.758 182.75 69.662 183.182 69.47C183.626 69.266 183.968 68.972 184.208 68.588C184.448 68.204 184.568 67.736 184.568 67.184V66.716H182.894C182.498 66.716 182.108 66.722 181.724 66.734C181.34 66.746 180.992 66.794 180.68 66.878C180.368 66.962 180.116 67.106 179.924 67.31C179.744 67.514 179.654 67.808 179.654 68.192C179.654 68.552 179.744 68.846 179.924 69.074C180.116 69.302 180.362 69.476 180.662 69.596C180.974 69.704 181.298 69.758 181.634 69.758ZM192.429 71.108C191.829 71.108 191.295 71.024 190.827 70.856C190.359 70.676 189.957 70.43 189.621 70.118C189.285 69.794 189.009 69.416 188.793 68.984C188.577 68.54 188.415 68.06 188.307 67.544C188.199 67.028 188.145 66.482 188.145 65.906C188.145 64.982 188.163 64.124 188.199 63.332C188.247 62.528 188.379 61.814 188.595 61.19C188.811 60.554 189.177 60.026 189.693 59.606C190.209 59.186 190.935 58.892 191.871 58.724C192.351 58.64 192.825 58.568 193.293 58.508C193.761 58.448 194.235 58.388 194.715 58.328C194.871 58.304 195.033 58.28 195.201 58.256C195.369 58.232 195.543 58.202 195.723 58.166C195.915 58.13 196.095 58.1 196.263 58.076V59.48C196.131 59.528 195.987 59.57 195.831 59.606C195.687 59.63 195.531 59.654 195.363 59.678C195.207 59.702 195.045 59.72 194.877 59.732C194.721 59.744 194.565 59.762 194.409 59.786C194.253 59.798 194.103 59.816 193.959 59.84C193.539 59.888 193.095 59.936 192.627 59.984C192.159 60.02 191.715 60.116 191.295 60.272C190.887 60.416 190.539 60.698 190.251 61.118C190.107 61.334 189.981 61.592 189.873 61.892C189.777 62.192 189.705 62.498 189.657 62.81C189.621 63.11 189.597 63.398 189.585 63.674C189.825 63.338 190.119 63.068 190.467 62.864C190.815 62.648 191.187 62.492 191.583 62.396C191.979 62.288 192.357 62.234 192.717 62.234C193.581 62.234 194.313 62.414 194.913 62.774C195.513 63.122 195.969 63.62 196.281 64.268C196.593 64.916 196.749 65.672 196.749 66.536C196.749 67.4 196.581 68.18 196.245 68.876C195.909 69.56 195.417 70.106 194.769 70.514C194.133 70.91 193.353 71.108 192.429 71.108ZM192.465 69.758C193.065 69.758 193.569 69.614 193.977 69.326C194.385 69.038 194.691 68.654 194.895 68.174C195.111 67.694 195.219 67.166 195.219 66.59C195.219 66.026 195.111 65.522 194.895 65.078C194.691 64.622 194.385 64.262 193.977 63.998C193.581 63.734 193.089 63.602 192.501 63.602C191.925 63.602 191.427 63.74 191.007 64.016C190.599 64.292 190.281 64.664 190.053 65.132C189.837 65.588 189.729 66.086 189.729 66.626C189.729 67.178 189.831 67.694 190.035 68.174C190.239 68.654 190.539 69.038 190.935 69.326C191.343 69.614 191.853 69.758 192.465 69.758ZM202.944 71.108C201.948 71.108 201.114 70.904 200.442 70.496C199.77 70.076 199.266 69.5 198.93 68.768C198.606 68.036 198.444 67.202 198.444 66.266C198.444 65.318 198.606 64.484 198.93 63.764C199.266 63.032 199.77 62.456 200.442 62.036C201.114 61.616 201.96 61.406 202.98 61.406C203.976 61.406 204.804 61.616 205.464 62.036C206.136 62.456 206.634 63.032 206.958 63.764C207.294 64.484 207.462 65.318 207.462 66.266C207.462 67.202 207.294 68.036 206.958 68.768C206.622 69.5 206.118 70.076 205.446 70.496C204.786 70.904 203.952 71.108 202.944 71.108ZM202.944 69.758C203.64 69.758 204.204 69.602 204.636 69.29C205.08 68.978 205.404 68.558 205.608 68.03C205.824 67.502 205.932 66.914 205.932 66.266C205.932 65.618 205.824 65.03 205.608 64.502C205.404 63.974 205.08 63.554 204.636 63.242C204.204 62.93 203.64 62.774 202.944 62.774C202.26 62.774 201.696 62.93 201.252 63.242C200.82 63.554 200.496 63.974 200.28 64.502C200.076 65.03 199.974 65.618 199.974 66.266C199.974 66.914 200.076 67.502 200.28 68.03C200.496 68.558 200.82 68.978 201.252 69.29C201.696 69.602 202.26 69.758 202.944 69.758ZM211.723 71V62.864H208.465V61.514H216.511V62.864H213.253V71H211.723ZM217.876 71V61.514H219.406V65.6H221.062L223.87 61.514H225.616L222.448 66.032L225.886 71H224.086L221.242 66.932H219.406V71H217.876ZM227.21 71V61.514H228.74V68.786C228.824 68.618 228.938 68.438 229.082 68.246C229.226 68.042 229.34 67.886 229.424 67.778L234.014 61.514H235.526V71H233.996V63.728C233.9 63.908 233.792 64.076 233.672 64.232C233.564 64.388 233.462 64.532 233.366 64.664L228.704 71H227.21Z" fill="white"/>
<circle cx="15" cy="115" r="15" fill="white"/>
<path d="M15.0373 120.139C14.381 120.139 13.796 120.027 13.2823 119.801C12.7719 119.576 12.3659 119.263 12.0643 118.862C11.766 118.457 11.6036 117.988 11.5771 117.455H12.8299C12.8564 117.783 12.9691 118.066 13.168 118.305C13.3668 118.54 13.627 118.722 13.9485 118.852C14.27 118.981 14.6263 119.045 15.0174 119.045C15.4549 119.045 15.8427 118.969 16.1808 118.817C16.5188 118.664 16.784 118.452 16.9762 118.18C17.1684 117.909 17.2646 117.594 17.2646 117.236C17.2646 116.861 17.1718 116.531 16.9862 116.246C16.8005 115.958 16.5288 115.733 16.1708 115.57C15.8129 115.408 15.3754 115.327 14.8583 115.327H14.043V114.233H14.8583C15.2627 114.233 15.6173 114.16 15.9222 114.014C16.2305 113.868 16.4708 113.663 16.6431 113.398C16.8188 113.133 16.9066 112.821 16.9066 112.463C16.9066 112.118 16.8304 111.818 16.6779 111.563C16.5254 111.308 16.31 111.109 16.0316 110.967C15.7565 110.824 15.4317 110.753 15.0572 110.753C14.7058 110.753 14.3744 110.817 14.0629 110.947C13.7546 111.073 13.5027 111.257 13.3072 111.499C13.1116 111.737 13.0056 112.026 12.989 112.364H11.7958C11.8157 111.83 11.9764 111.363 12.2781 110.962C12.5797 110.557 12.9741 110.242 13.4613 110.017C13.9518 109.792 14.4904 109.679 15.0771 109.679C15.7068 109.679 16.247 109.807 16.6978 110.062C17.1486 110.314 17.4949 110.647 17.7369 111.061C17.9788 111.475 18.0998 111.923 18.0998 112.403C18.0998 112.977 17.949 113.466 17.6474 113.87C17.3491 114.274 16.9431 114.554 16.4293 114.71V114.79C17.0723 114.896 17.5745 115.169 17.9357 115.61C18.297 116.048 18.4776 116.589 18.4776 117.236C18.4776 117.789 18.3268 118.286 18.0252 118.727C17.7269 119.165 17.3192 119.509 16.8022 119.761C16.2852 120.013 15.6969 120.139 15.0373 120.139Z" fill="#475467"/>
<path d="M45.566 121V108.274H55.574V121H54.008V109.696H47.132V121H45.566ZM62.4944 121.108C61.4984 121.108 60.6644 120.904 59.9924 120.496C59.3204 120.076 58.8164 119.5 58.4804 118.768C58.1564 118.036 57.9944 117.202 57.9944 116.266C57.9944 115.318 58.1564 114.484 58.4804 113.764C58.8164 113.032 59.3204 112.456 59.9924 112.036C60.6644 111.616 61.5104 111.406 62.5304 111.406C63.5264 111.406 64.3544 111.616 65.0144 112.036C65.6864 112.456 66.1844 113.032 66.5084 113.764C66.8444 114.484 67.0124 115.318 67.0124 116.266C67.0124 117.202 66.8444 118.036 66.5084 118.768C66.1724 119.5 65.6684 120.076 64.9964 120.496C64.3364 120.904 63.5024 121.108 62.4944 121.108ZM62.4944 119.758C63.1904 119.758 63.7544 119.602 64.1864 119.29C64.6304 118.978 64.9544 118.558 65.1584 118.03C65.3744 117.502 65.4824 116.914 65.4824 116.266C65.4824 115.618 65.3744 115.03 65.1584 114.502C64.9544 113.974 64.6304 113.554 64.1864 113.242C63.7544 112.93 63.1904 112.774 62.4944 112.774C61.8104 112.774 61.2464 112.93 60.8024 113.242C60.3704 113.554 60.0464 113.974 59.8304 114.502C59.6264 115.03 59.5244 115.618 59.5244 116.266C59.5244 116.914 59.6264 117.502 59.8304 118.03C60.0464 118.558 60.3704 118.978 60.8024 119.29C61.2464 119.602 61.8104 119.758 62.4944 119.758ZM68.1076 121.018V119.686C68.3476 119.686 68.5636 119.638 68.7556 119.542C68.9476 119.434 69.1156 119.278 69.2596 119.074C69.4276 118.834 69.5596 118.486 69.6556 118.03C69.7516 117.574 69.8176 117.088 69.8536 116.572C69.9016 115.996 69.9376 115.432 69.9616 114.88C69.9856 114.316 70.0036 113.758 70.0156 113.206C70.0396 112.654 70.0516 112.09 70.0516 111.514H76.6396V121H75.1096V112.864H71.5456C71.5336 113.272 71.5156 113.686 71.4916 114.106C71.4796 114.514 71.4616 114.928 71.4376 115.348C71.4256 115.756 71.4076 116.17 71.3836 116.59C71.3716 117.07 71.3236 117.61 71.2396 118.21C71.1556 118.81 70.9756 119.356 70.6996 119.848C70.4356 120.316 70.1116 120.628 69.7276 120.784C69.3556 120.94 68.8156 121.018 68.1076 121.018ZM79.3499 125.068V123.61C79.9379 123.61 80.4059 123.526 80.7539 123.358C81.1019 123.202 81.3899 122.95 81.6179 122.602C81.8579 122.266 82.0859 121.834 82.3019 121.306L78.1439 111.514H79.9439L83.1479 119.506L85.7759 111.514H87.5039L84.8399 118.984C84.7079 119.368 84.5579 119.8 84.3899 120.28C84.2219 120.76 84.0359 121.246 83.8319 121.738C83.6279 122.242 83.3999 122.704 83.1479 123.124C82.9079 123.556 82.6379 123.904 82.3379 124.168C82.0859 124.396 81.8399 124.576 81.5999 124.708C81.3599 124.84 81.0659 124.93 80.7179 124.978C80.3819 125.038 79.9259 125.068 79.3499 125.068ZM94.5028 121V117.346C94.0468 117.43 93.6028 117.49 93.1708 117.526C92.7508 117.55 92.3728 117.562 92.0368 117.562C91.1488 117.562 90.4468 117.424 89.9308 117.148C89.4148 116.872 89.0488 116.452 88.8328 115.888C88.6168 115.312 88.5088 114.598 88.5088 113.746V111.514H90.0388V113.638C90.0388 114.19 90.0928 114.658 90.2008 115.042C90.3088 115.426 90.5188 115.72 90.8308 115.924C91.1428 116.116 91.6108 116.212 92.2348 116.212C92.5948 116.212 92.9728 116.194 93.3688 116.158C93.7768 116.122 94.1548 116.068 94.5028 115.996V111.514H96.0328V121H94.5028ZM98.4501 121V111.514H99.9801V118.786C100.064 118.618 100.178 118.438 100.322 118.246C100.466 118.042 100.58 117.886 100.664 117.778L105.254 111.514H106.766V121H105.236V113.728C105.14 113.908 105.032 114.076 104.912 114.232C104.804 114.388 104.702 114.532 104.606 114.664L99.9441 121H98.4501ZM111.387 121V112.864H108.129V111.514H116.175V112.864H112.917V121H111.387ZM121.644 121.108C120.636 121.108 119.802 120.904 119.142 120.496C118.482 120.076 117.99 119.5 117.666 118.768C117.342 118.036 117.18 117.202 117.18 116.266C117.18 115.318 117.348 114.484 117.684 113.764C118.032 113.032 118.536 112.456 119.196 112.036C119.856 111.616 120.666 111.406 121.626 111.406C122.334 111.406 122.952 111.544 123.48 111.82C124.02 112.084 124.464 112.444 124.812 112.9C125.172 113.356 125.43 113.866 125.586 114.43C125.754 114.994 125.826 115.576 125.802 116.176C125.79 116.284 125.784 116.392 125.784 116.5C125.784 116.608 125.778 116.716 125.766 116.824H118.728C118.776 117.376 118.914 117.874 119.142 118.318C119.37 118.762 119.694 119.116 120.114 119.38C120.534 119.632 121.056 119.758 121.68 119.758C121.992 119.758 122.304 119.722 122.616 119.65C122.94 119.566 123.228 119.428 123.48 119.236C123.744 119.044 123.93 118.786 124.038 118.462H125.604C125.46 119.074 125.19 119.578 124.794 119.974C124.398 120.358 123.924 120.646 123.372 120.838C122.82 121.018 122.244 121.108 121.644 121.108ZM118.764 115.492H124.254C124.242 114.952 124.122 114.478 123.894 114.07C123.666 113.662 123.354 113.344 122.958 113.116C122.574 112.888 122.112 112.774 121.572 112.774C120.984 112.774 120.486 112.9 120.078 113.152C119.682 113.404 119.376 113.734 119.16 114.142C118.944 114.55 118.812 115 118.764 115.492ZM132.71 121V111.514H139.262V112.864H134.24V121H132.71ZM144.848 121.108C143.852 121.108 143.018 120.904 142.346 120.496C141.674 120.076 141.17 119.5 140.834 118.768C140.51 118.036 140.348 117.202 140.348 116.266C140.348 115.318 140.51 114.484 140.834 113.764C141.17 113.032 141.674 112.456 142.346 112.036C143.018 111.616 143.864 111.406 144.884 111.406C145.88 111.406 146.708 111.616 147.368 112.036C148.04 112.456 148.538 113.032 148.862 113.764C149.198 114.484 149.366 115.318 149.366 116.266C149.366 117.202 149.198 118.036 148.862 118.768C148.526 119.5 148.022 120.076 147.35 120.496C146.69 120.904 145.856 121.108 144.848 121.108ZM144.848 119.758C145.544 119.758 146.108 119.602 146.54 119.29C146.984 118.978 147.308 118.558 147.512 118.03C147.728 117.502 147.836 116.914 147.836 116.266C147.836 115.618 147.728 115.03 147.512 114.502C147.308 113.974 146.984 113.554 146.54 113.242C146.108 112.93 145.544 112.774 144.848 112.774C144.164 112.774 143.6 112.93 143.156 113.242C142.724 113.554 142.4 113.974 142.184 114.502C141.98 115.03 141.878 115.618 141.878 116.266C141.878 116.914 141.98 117.502 142.184 118.03C142.4 118.558 142.724 118.978 143.156 119.29C143.6 119.602 144.164 119.758 144.848 119.758ZM153.627 121V112.864H150.369V111.514H158.415V112.864H155.157V121H153.627ZM163.92 121.108C162.924 121.108 162.09 120.904 161.418 120.496C160.746 120.076 160.242 119.5 159.906 118.768C159.582 118.036 159.42 117.202 159.42 116.266C159.42 115.318 159.582 114.484 159.906 113.764C160.242 113.032 160.746 112.456 161.418 112.036C162.09 111.616 162.936 111.406 163.956 111.406C164.952 111.406 165.78 111.616 166.44 112.036C167.112 112.456 167.61 113.032 167.934 113.764C168.27 114.484 168.438 115.318 168.438 116.266C168.438 117.202 168.27 118.036 167.934 118.768C167.598 119.5 167.094 120.076 166.422 120.496C165.762 120.904 164.928 121.108 163.92 121.108ZM163.92 119.758C164.616 119.758 165.18 119.602 165.612 119.29C166.056 118.978 166.38 118.558 166.584 118.03C166.8 117.502 166.908 116.914 166.908 116.266C166.908 115.618 166.8 115.03 166.584 114.502C166.38 113.974 166.056 113.554 165.612 113.242C165.18 112.93 164.616 112.774 163.92 112.774C163.236 112.774 162.672 112.93 162.228 113.242C161.796 113.554 161.472 113.974 161.256 114.502C161.052 115.03 160.95 115.618 160.95 116.266C160.95 116.914 161.052 117.502 161.256 118.03C161.472 118.558 161.796 118.978 162.228 119.29C162.672 119.602 163.236 119.758 163.92 119.758ZM170.485 121V111.514H174.157C174.577 111.514 174.991 111.544 175.399 111.604C175.819 111.652 176.197 111.76 176.533 111.928C176.881 112.084 177.157 112.318 177.361 112.63C177.577 112.942 177.685 113.356 177.685 113.872C177.685 114.184 177.637 114.472 177.541 114.736C177.445 114.988 177.301 115.21 177.109 115.402C176.929 115.594 176.695 115.762 176.407 115.906C177.055 116.05 177.523 116.332 177.811 116.752C178.099 117.172 178.243 117.652 178.243 118.192C178.243 118.672 178.153 119.092 177.973 119.452C177.805 119.8 177.565 120.088 177.253 120.316C176.953 120.544 176.599 120.718 176.191 120.838C175.795 120.946 175.369 121 174.913 121H170.485ZM172.051 119.668H174.553C174.925 119.668 175.273 119.632 175.597 119.56C175.921 119.488 176.185 119.356 176.389 119.164C176.593 118.96 176.695 118.672 176.695 118.3C176.695 117.916 176.605 117.628 176.425 117.436C176.257 117.232 176.035 117.094 175.759 117.022C175.495 116.938 175.207 116.89 174.895 116.878C174.583 116.866 174.289 116.86 174.013 116.86H172.051V119.668ZM172.051 115.564H173.365C173.605 115.564 173.881 115.552 174.193 115.528C174.517 115.504 174.829 115.45 175.129 115.366C175.441 115.27 175.693 115.126 175.885 114.934C176.089 114.742 176.191 114.478 176.191 114.142C176.191 113.698 176.065 113.392 175.813 113.224C175.573 113.044 175.285 112.942 174.949 112.918C174.613 112.882 174.301 112.864 174.013 112.864H172.051V115.564ZM184.469 121.108C183.473 121.108 182.639 120.904 181.967 120.496C181.295 120.076 180.791 119.5 180.455 118.768C180.131 118.036 179.969 117.202 179.969 116.266C179.969 115.318 180.131 114.484 180.455 113.764C180.791 113.032 181.295 112.456 181.967 112.036C182.639 111.616 183.485 111.406 184.505 111.406C185.501 111.406 186.329 111.616 186.989 112.036C187.661 112.456 188.159 113.032 188.483 113.764C188.819 114.484 188.987 115.318 188.987 116.266C188.987 117.202 188.819 118.036 188.483 118.768C188.147 119.5 187.643 120.076 186.971 120.496C186.311 120.904 185.477 121.108 184.469 121.108ZM184.469 119.758C185.165 119.758 185.729 119.602 186.161 119.29C186.605 118.978 186.929 118.558 187.133 118.03C187.349 117.502 187.457 116.914 187.457 116.266C187.457 115.618 187.349 115.03 187.133 114.502C186.929 113.974 186.605 113.554 186.161 113.242C185.729 112.93 185.165 112.774 184.469 112.774C183.785 112.774 183.221 112.93 182.777 113.242C182.345 113.554 182.021 113.974 181.805 114.502C181.601 115.03 181.499 115.618 181.499 116.266C181.499 116.914 181.601 117.502 181.805 118.03C182.021 118.558 182.345 118.978 182.777 119.29C183.221 119.602 183.785 119.758 184.469 119.758ZM195.138 121.108C194.13 121.108 193.296 120.904 192.636 120.496C191.976 120.076 191.484 119.5 191.16 118.768C190.836 118.036 190.674 117.202 190.674 116.266C190.674 115.318 190.842 114.484 191.178 113.764C191.526 113.032 192.03 112.456 192.69 112.036C193.35 111.616 194.16 111.406 195.12 111.406C195.828 111.406 196.446 111.544 196.974 111.82C197.514 112.084 197.958 112.444 198.306 112.9C198.666 113.356 198.924 113.866 199.08 114.43C199.248 114.994 199.32 115.576 199.296 116.176C199.284 116.284 199.278 116.392 199.278 116.5C199.278 116.608 199.272 116.716 199.26 116.824H192.222C192.27 117.376 192.408 117.874 192.636 118.318C192.864 118.762 193.188 119.116 193.608 119.38C194.028 119.632 194.55 119.758 195.174 119.758C195.486 119.758 195.798 119.722 196.11 119.65C196.434 119.566 196.722 119.428 196.974 119.236C197.238 119.044 197.424 118.786 197.532 118.462H199.098C198.954 119.074 198.684 119.578 198.288 119.974C197.892 120.358 197.418 120.646 196.866 120.838C196.314 121.018 195.738 121.108 195.138 121.108ZM192.258 115.492H197.748C197.736 114.952 197.616 114.478 197.388 114.07C197.16 113.662 196.848 113.344 196.452 113.116C196.068 112.888 195.606 112.774 195.066 112.774C194.478 112.774 193.98 112.9 193.572 113.152C193.176 113.404 192.87 113.734 192.654 114.142C192.438 114.55 192.306 115 192.258 115.492ZM206.204 124.42V111.514H207.662L207.734 112.972C208.058 112.456 208.496 112.066 209.048 111.802C209.612 111.538 210.218 111.406 210.866 111.406C211.826 111.406 212.612 111.622 213.224 112.054C213.836 112.474 214.286 113.05 214.574 113.782C214.874 114.514 215.024 115.342 215.024 116.266C215.024 117.19 214.874 118.018 214.574 118.75C214.274 119.482 213.812 120.058 213.188 120.478C212.564 120.898 211.766 121.108 210.794 121.108C210.314 121.108 209.882 121.06 209.498 120.964C209.114 120.856 208.778 120.706 208.49 120.514C208.202 120.322 207.95 120.106 207.734 119.866V124.42H206.204ZM210.668 119.758C211.364 119.758 211.916 119.602 212.324 119.29C212.732 118.966 213.026 118.54 213.206 118.012C213.398 117.484 213.494 116.902 213.494 116.266C213.494 115.618 213.398 115.03 213.206 114.502C213.026 113.974 212.726 113.554 212.306 113.242C211.886 112.93 211.328 112.774 210.632 112.774C210.008 112.774 209.474 112.936 209.03 113.26C208.598 113.572 208.268 113.998 208.04 114.538C207.812 115.066 207.698 115.648 207.698 116.284C207.698 116.944 207.806 117.538 208.022 118.066C208.238 118.594 208.568 119.008 209.012 119.308C209.456 119.608 210.008 119.758 210.668 119.758ZM221.101 121.108C220.093 121.108 219.259 120.904 218.599 120.496C217.939 120.076 217.447 119.5 217.123 118.768C216.799 118.036 216.637 117.202 216.637 116.266C216.637 115.318 216.805 114.484 217.141 113.764C217.489 113.032 217.993 112.456 218.653 112.036C219.313 111.616 220.123 111.406 221.083 111.406C221.791 111.406 222.409 111.544 222.937 111.82C223.477 112.084 223.921 112.444 224.269 112.9C224.629 113.356 224.887 113.866 225.043 114.43C225.211 114.994 225.283 115.576 225.259 116.176C225.247 116.284 225.241 116.392 225.241 116.5C225.241 116.608 225.235 116.716 225.223 116.824H218.185C218.233 117.376 218.371 117.874 218.599 118.318C218.827 118.762 219.151 119.116 219.571 119.38C219.991 119.632 220.513 119.758 221.137 119.758C221.449 119.758 221.761 119.722 222.073 119.65C222.397 119.566 222.685 119.428 222.937 119.236C223.201 119.044 223.387 118.786 223.495 118.462H225.061C224.917 119.074 224.647 119.578 224.251 119.974C223.855 120.358 223.381 120.646 222.829 120.838C222.277 121.018 221.701 121.108 221.101 121.108ZM218.221 115.492H223.711C223.699 114.952 223.579 114.478 223.351 114.07C223.123 113.662 222.811 113.344 222.415 113.116C222.031 112.888 221.569 112.774 221.029 112.774C220.441 112.774 219.943 112.9 219.535 113.152C219.139 113.404 218.833 113.734 218.617 114.142C218.401 114.55 218.269 115 218.221 115.492ZM227.315 121V111.514H228.845V119.668H232.409V111.514H233.939V119.668H237.539V111.514H239.069V121H227.315ZM245.587 121.108C244.579 121.108 243.745 120.904 243.085 120.496C242.425 120.076 241.933 119.5 241.609 118.768C241.285 118.036 241.123 117.202 241.123 116.266C241.123 115.318 241.291 114.484 241.627 113.764C241.975 113.032 242.479 112.456 243.139 112.036C243.799 111.616 244.609 111.406 245.569 111.406C246.277 111.406 246.895 111.544 247.423 111.82C247.963 112.084 248.407 112.444 248.755 112.9C249.115 113.356 249.373 113.866 249.529 114.43C249.697 114.994 249.769 115.576 249.745 116.176C249.733 116.284 249.727 116.392 249.727 116.5C249.727 116.608 249.721 116.716 249.709 116.824H242.671C242.719 117.376 242.857 117.874 243.085 118.318C243.313 118.762 243.637 119.116 244.057 119.38C244.477 119.632 244.999 119.758 245.623 119.758C245.935 119.758 246.247 119.722 246.559 119.65C246.883 119.566 247.171 119.428 247.423 119.236C247.687 119.044 247.873 118.786 247.981 118.462H249.547C249.403 119.074 249.133 119.578 248.737 119.974C248.341 120.358 247.867 120.646 247.315 120.838C246.763 121.018 246.187 121.108 245.587 121.108ZM242.707 115.492H248.197C248.185 114.952 248.065 114.478 247.837 114.07C247.609 113.662 247.297 113.344 246.901 113.116C246.517 112.888 246.055 112.774 245.515 112.774C244.927 112.774 244.429 112.9 244.021 113.152C243.625 113.404 243.319 113.734 243.103 114.142C242.887 114.55 242.755 115 242.707 115.492ZM251.802 121V111.514H253.332V115.672H258.084V111.514H259.614V121H258.084V117.022H253.332V121H251.802ZM262.032 121V111.514H263.562V118.786C263.646 118.618 263.76 118.438 263.904 118.246C264.048 118.042 264.162 117.886 264.246 117.778L268.836 111.514H270.348V121H268.818V113.728C268.722 113.908 268.614 114.076 268.494 114.232C268.386 114.388 268.284 114.532 268.188 114.664L263.526 121H262.032ZM276.859 121.108C275.851 121.108 275.017 120.904 274.357 120.496C273.697 120.076 273.205 119.5 272.881 118.768C272.557 118.036 272.395 117.202 272.395 116.266C272.395 115.318 272.563 114.484 272.899 113.764C273.247 113.032 273.751 112.456 274.411 112.036C275.071 111.616 275.881 111.406 276.841 111.406C277.549 111.406 278.167 111.544 278.695 111.82C279.235 112.084 279.679 112.444 280.027 112.9C280.387 113.356 280.645 113.866 280.801 114.43C280.969 114.994 281.041 115.576 281.017 116.176C281.005 116.284 280.999 116.392 280.999 116.5C280.999 116.608 280.993 116.716 280.981 116.824H273.943C273.991 117.376 274.129 117.874 274.357 118.318C274.585 118.762 274.909 119.116 275.329 119.38C275.749 119.632 276.271 119.758 276.895 119.758C277.207 119.758 277.519 119.722 277.831 119.65C278.155 119.566 278.443 119.428 278.695 119.236C278.959 119.044 279.145 118.786 279.253 118.462H280.819C280.675 119.074 280.405 119.578 280.009 119.974C279.613 120.358 279.139 120.646 278.587 120.838C278.035 121.018 277.459 121.108 276.859 121.108ZM273.979 115.492H279.469C279.457 114.952 279.337 114.478 279.109 114.07C278.881 113.662 278.569 113.344 278.173 113.116C277.789 112.888 277.327 112.774 276.787 112.774C276.199 112.774 275.701 112.9 275.293 113.152C274.897 113.404 274.591 113.734 274.375 114.142C274.159 114.55 274.027 115 273.979 115.492ZM287.115 123.916V119.668C287.463 119.668 287.739 119.572 287.943 119.38C288.159 119.188 288.327 118.936 288.447 118.624C288.567 118.312 288.657 117.976 288.717 117.616C288.777 117.244 288.825 116.89 288.861 116.554C288.921 116.002 288.957 115.456 288.969 114.916C288.993 114.364 289.005 113.926 289.005 113.602C289.017 113.254 289.023 112.906 289.023 112.558C289.023 112.21 289.023 111.862 289.023 111.514H295.755V119.668H296.997V123.916H295.521V121H288.591V123.916H287.115ZM289.545 119.668H294.225V112.864H290.481C290.469 113.368 290.457 113.932 290.445 114.556C290.433 115.18 290.409 115.762 290.373 116.302C290.361 116.614 290.331 116.968 290.283 117.364C290.247 117.76 290.175 118.162 290.067 118.57C289.959 118.966 289.785 119.332 289.545 119.668ZM298.082 121.018V119.686C298.322 119.686 298.538 119.638 298.73 119.542C298.922 119.434 299.09 119.278 299.234 119.074C299.402 118.834 299.534 118.486 299.63 118.03C299.726 117.574 299.792 117.088 299.828 116.572C299.876 115.996 299.912 115.432 299.936 114.88C299.96 114.316 299.978 113.758 299.99 113.206C300.014 112.654 300.026 112.09 300.026 111.514H306.614V121H305.084V112.864H301.52C301.508 113.272 301.49 113.686 301.466 114.106C301.454 114.514 301.436 114.928 301.412 115.348C301.4 115.756 301.382 116.17 301.358 116.59C301.346 117.07 301.298 117.61 301.214 118.21C301.13 118.81 300.95 119.356 300.674 119.848C300.41 120.316 300.086 120.628 299.702 120.784C299.33 120.94 298.79 121.018 298.082 121.018ZM308.425 121L310.891 117.256C310.207 117.064 309.667 116.752 309.271 116.32C308.875 115.876 308.677 115.288 308.677 114.556C308.677 113.98 308.761 113.5 308.929 113.116C309.097 112.72 309.343 112.408 309.667 112.18C309.991 111.94 310.381 111.772 310.837 111.676C311.293 111.568 311.815 111.514 312.403 111.514H316.219V121H314.689V117.49H312.511L310.207 121H308.425ZM313.555 116.158H314.689V112.864H312.655C312.295 112.864 311.965 112.882 311.665 112.918C311.365 112.954 311.107 113.032 310.891 113.152C310.687 113.26 310.525 113.422 310.405 113.638C310.285 113.842 310.225 114.124 310.225 114.484C310.225 114.88 310.321 115.192 310.513 115.42C310.717 115.648 310.975 115.816 311.287 115.924C311.611 116.02 311.971 116.086 312.367 116.122C312.763 116.146 313.159 116.158 313.555 116.158ZM327.535 121.108C326.539 121.108 325.711 120.904 325.051 120.496C324.403 120.076 323.917 119.5 323.593 118.768C323.281 118.036 323.125 117.208 323.125 116.284C323.125 115.384 323.287 114.568 323.611 113.836C323.947 113.092 324.451 112.504 325.123 112.072C325.807 111.628 326.671 111.406 327.715 111.406C328.363 111.406 328.939 111.514 329.443 111.73C329.959 111.946 330.385 112.264 330.721 112.684C331.057 113.092 331.291 113.608 331.423 114.232H329.857C329.677 113.704 329.389 113.332 328.993 113.116C328.609 112.888 328.153 112.774 327.625 112.774C326.905 112.774 326.329 112.942 325.897 113.278C325.465 113.614 325.147 114.052 324.943 114.592C324.751 115.12 324.655 115.684 324.655 116.284C324.655 116.908 324.757 117.484 324.961 118.012C325.165 118.54 325.483 118.966 325.915 119.29C326.347 119.602 326.905 119.758 327.589 119.758C328.093 119.758 328.567 119.65 329.011 119.434C329.467 119.218 329.767 118.834 329.911 118.282H331.495C331.375 118.93 331.117 119.464 330.721 119.884C330.337 120.304 329.863 120.616 329.299 120.82C328.747 121.012 328.159 121.108 327.535 121.108ZM333.435 121V111.514H337.107C337.527 111.514 337.941 111.544 338.349 111.604C338.769 111.652 339.147 111.76 339.483 111.928C339.831 112.084 340.107 112.318 340.311 112.63C340.527 112.942 340.635 113.356 340.635 113.872C340.635 114.184 340.587 114.472 340.491 114.736C340.395 114.988 340.251 115.21 340.059 115.402C339.879 115.594 339.645 115.762 339.357 115.906C340.005 116.05 340.473 116.332 340.761 116.752C341.049 117.172 341.193 117.652 341.193 118.192C341.193 118.672 341.103 119.092 340.923 119.452C340.755 119.8 340.515 120.088 340.203 120.316C339.903 120.544 339.549 120.718 339.141 120.838C338.745 120.946 338.319 121 337.863 121H333.435ZM335.001 119.668H337.503C337.875 119.668 338.223 119.632 338.547 119.56C338.871 119.488 339.135 119.356 339.339 119.164C339.543 118.96 339.645 118.672 339.645 118.3C339.645 117.916 339.555 117.628 339.375 117.436C339.207 117.232 338.985 117.094 338.709 117.022C338.445 116.938 338.157 116.89 337.845 116.878C337.533 116.866 337.239 116.86 336.963 116.86H335.001V119.668ZM335.001 115.564H336.315C336.555 115.564 336.831 115.552 337.143 115.528C337.467 115.504 337.779 115.45 338.079 115.366C338.391 115.27 338.643 115.126 338.835 114.934C339.039 114.742 339.141 114.478 339.141 114.142C339.141 113.698 339.015 113.392 338.763 113.224C338.523 113.044 338.235 112.942 337.899 112.918C337.563 112.882 337.251 112.864 336.963 112.864H335.001V115.564ZM347.418 121.108C346.422 121.108 345.588 120.904 344.916 120.496C344.244 120.076 343.74 119.5 343.404 118.768C343.08 118.036 342.918 117.202 342.918 116.266C342.918 115.318 343.08 114.484 343.404 113.764C343.74 113.032 344.244 112.456 344.916 112.036C345.588 111.616 346.434 111.406 347.454 111.406C348.45 111.406 349.278 111.616 349.938 112.036C350.61 112.456 351.108 113.032 351.432 113.764C351.768 114.484 351.936 115.318 351.936 116.266C351.936 117.202 351.768 118.036 351.432 118.768C351.096 119.5 350.592 120.076 349.92 120.496C349.26 120.904 348.426 121.108 347.418 121.108ZM347.418 119.758C348.114 119.758 348.678 119.602 349.11 119.29C349.554 118.978 349.878 118.558 350.082 118.03C350.298 117.502 350.406 116.914 350.406 116.266C350.406 115.618 350.298 115.03 350.082 114.502C349.878 113.974 349.554 113.554 349.11 113.242C348.678 112.93 348.114 112.774 347.418 112.774C346.734 112.774 346.17 112.93 345.726 113.242C345.294 113.554 344.97 113.974 344.754 114.502C344.55 115.03 344.448 115.618 344.448 116.266C344.448 116.914 344.55 117.502 344.754 118.03C344.97 118.558 345.294 118.978 345.726 119.29C346.17 119.602 346.734 119.758 347.418 119.758ZM358.087 121.108C357.079 121.108 356.245 120.904 355.585 120.496C354.925 120.076 354.433 119.5 354.109 118.768C353.785 118.036 353.623 117.202 353.623 116.266C353.623 115.318 353.791 114.484 354.127 113.764C354.475 113.032 354.979 112.456 355.639 112.036C356.299 111.616 357.109 111.406 358.069 111.406C358.777 111.406 359.395 111.544 359.923 111.82C360.463 112.084 360.907 112.444 361.255 112.9C361.615 113.356 361.873 113.866 362.029 114.43C362.197 114.994 362.269 115.576 362.245 116.176C362.233 116.284 362.227 116.392 362.227 116.5C362.227 116.608 362.221 116.716 362.209 116.824H355.171C355.219 117.376 355.357 117.874 355.585 118.318C355.813 118.762 356.137 119.116 356.557 119.38C356.977 119.632 357.499 119.758 358.123 119.758C358.435 119.758 358.747 119.722 359.059 119.65C359.383 119.566 359.671 119.428 359.923 119.236C360.187 119.044 360.373 118.786 360.481 118.462H362.047C361.903 119.074 361.633 119.578 361.237 119.974C360.841 120.358 360.367 120.646 359.815 120.838C359.263 121.018 358.687 121.108 358.087 121.108ZM355.207 115.492H360.697C360.685 114.952 360.565 114.478 360.337 114.07C360.109 113.662 359.797 113.344 359.401 113.116C359.017 112.888 358.555 112.774 358.015 112.774C357.427 112.774 356.929 112.9 356.521 113.152C356.125 113.404 355.819 113.734 355.603 114.142C355.387 114.55 355.255 115 355.207 115.492ZM364.302 121V111.514H365.832V118.786C365.916 118.618 366.03 118.438 366.174 118.246C366.318 118.042 366.432 117.886 366.516 117.778L371.106 111.514H372.618V121H371.088V113.728C370.992 113.908 370.884 114.076 370.764 114.232C370.656 114.388 370.554 114.532 370.458 114.664L365.796 121H364.302ZM368.586 110.182C367.638 110.182 366.894 109.978 366.354 109.57C365.826 109.162 365.55 108.568 365.526 107.788H366.93C366.954 108.208 367.11 108.514 367.398 108.706C367.698 108.898 368.1 108.994 368.604 108.994C369.108 108.994 369.504 108.898 369.792 108.706C370.092 108.514 370.254 108.208 370.278 107.788H371.682C371.67 108.304 371.538 108.742 371.286 109.102C371.034 109.462 370.68 109.732 370.224 109.912C369.768 110.092 369.222 110.182 368.586 110.182ZM383.314 121.108C382.858 121.108 382.402 121.066 381.946 120.982C381.49 120.898 381.064 120.76 380.668 120.568C380.284 120.364 379.972 120.094 379.732 119.758C379.492 119.41 379.36 118.978 379.336 118.462H380.83C380.89 118.786 381.064 119.044 381.352 119.236C381.64 119.428 381.964 119.566 382.324 119.65C382.696 119.722 383.026 119.758 383.314 119.758C383.65 119.758 383.992 119.722 384.34 119.65C384.7 119.578 385 119.434 385.24 119.218C385.492 119.002 385.618 118.684 385.618 118.264C385.618 117.856 385.516 117.556 385.312 117.364C385.12 117.172 384.862 117.046 384.538 116.986C384.226 116.926 383.884 116.896 383.512 116.896H381.82V115.546H383.206C383.434 115.546 383.668 115.528 383.908 115.492C384.148 115.444 384.37 115.372 384.574 115.276C384.778 115.168 384.94 115.018 385.06 114.826C385.192 114.634 385.258 114.388 385.258 114.088C385.258 113.752 385.162 113.488 384.97 113.296C384.778 113.104 384.532 112.972 384.232 112.9C383.932 112.816 383.626 112.774 383.314 112.774C383.026 112.774 382.72 112.804 382.396 112.864C382.084 112.924 381.814 113.044 381.586 113.224C381.358 113.392 381.22 113.644 381.172 113.98H379.66C379.684 113.332 379.882 112.822 380.254 112.45C380.626 112.078 381.088 111.814 381.64 111.658C382.192 111.49 382.744 111.406 383.296 111.406C383.716 111.406 384.13 111.448 384.538 111.532C384.946 111.616 385.318 111.76 385.654 111.964C385.99 112.156 386.254 112.414 386.446 112.738C386.65 113.062 386.752 113.464 386.752 113.944C386.752 114.376 386.65 114.76 386.446 115.096C386.242 115.432 385.93 115.702 385.51 115.906C386.122 116.098 386.548 116.398 386.788 116.806C387.028 117.214 387.148 117.7 387.148 118.264C387.148 118.768 387.04 119.2 386.824 119.56C386.608 119.908 386.314 120.202 385.942 120.442C385.582 120.67 385.174 120.838 384.718 120.946C384.262 121.054 383.794 121.108 383.314 121.108ZM392.164 121.108C391.732 121.108 391.312 121.054 390.904 120.946C390.508 120.826 390.148 120.652 389.824 120.424C389.512 120.184 389.26 119.89 389.068 119.542C388.888 119.182 388.798 118.768 388.798 118.3C388.798 117.76 388.894 117.304 389.086 116.932C389.29 116.56 389.56 116.266 389.896 116.05C390.232 115.834 390.622 115.678 391.066 115.582C391.51 115.486 391.972 115.438 392.452 115.438H395.242C395.242 114.898 395.164 114.43 395.008 114.034C394.864 113.638 394.624 113.332 394.288 113.116C393.952 112.888 393.508 112.774 392.956 112.774C392.62 112.774 392.308 112.81 392.02 112.882C391.732 112.954 391.486 113.068 391.282 113.224C391.078 113.38 390.928 113.59 390.832 113.854H389.194C389.278 113.422 389.44 113.056 389.68 112.756C389.932 112.444 390.232 112.192 390.58 112C390.94 111.796 391.324 111.646 391.732 111.55C392.14 111.454 392.548 111.406 392.956 111.406C393.868 111.406 394.6 111.592 395.152 111.964C395.704 112.324 396.106 112.84 396.358 113.512C396.61 114.172 396.736 114.958 396.736 115.87V121H395.458L395.368 119.794C395.104 120.154 394.786 120.43 394.414 120.622C394.042 120.814 393.658 120.94 393.262 121C392.878 121.072 392.512 121.108 392.164 121.108ZM392.308 119.758C392.908 119.758 393.424 119.662 393.856 119.47C394.3 119.266 394.642 118.972 394.882 118.588C395.122 118.204 395.242 117.736 395.242 117.184V116.716H393.568C393.172 116.716 392.782 116.722 392.398 116.734C392.014 116.746 391.666 116.794 391.354 116.878C391.042 116.962 390.79 117.106 390.598 117.31C390.418 117.514 390.328 117.808 390.328 118.192C390.328 118.552 390.418 118.846 390.598 119.074C390.79 119.302 391.036 119.476 391.336 119.596C391.648 119.704 391.972 119.758 392.308 119.758ZM398.296 123.916V119.668C398.644 119.668 398.92 119.572 399.124 119.38C399.34 119.188 399.508 118.936 399.628 118.624C399.748 118.312 399.838 117.976 399.898 117.616C399.958 117.244 400.006 116.89 400.042 116.554C400.102 116.002 400.138 115.456 400.15 114.916C400.174 114.364 400.186 113.926 400.186 113.602C400.198 113.254 400.204 112.906 400.204 112.558C400.204 112.21 400.204 111.862 400.204 111.514H406.936V119.668H408.178V123.916H406.702V121H399.772V123.916H398.296ZM400.726 119.668H405.406V112.864H401.662C401.65 113.368 401.638 113.932 401.626 114.556C401.614 115.18 401.59 115.762 401.554 116.302C401.542 116.614 401.512 116.968 401.464 117.364C401.428 117.76 401.356 118.162 401.248 118.57C401.14 118.966 400.966 119.332 400.726 119.668ZM412.818 121.108C412.386 121.108 411.966 121.054 411.558 120.946C411.162 120.826 410.802 120.652 410.478 120.424C410.166 120.184 409.914 119.89 409.722 119.542C409.542 119.182 409.452 118.768 409.452 118.3C409.452 117.76 409.548 117.304 409.74 116.932C409.944 116.56 410.214 116.266 410.55 116.05C410.886 115.834 411.276 115.678 411.72 115.582C412.164 115.486 412.626 115.438 413.106 115.438H415.896C415.896 114.898 415.818 114.43 415.662 114.034C415.518 113.638 415.278 113.332 414.942 113.116C414.606 112.888 414.162 112.774 413.61 112.774C413.274 112.774 412.962 112.81 412.674 112.882C412.386 112.954 412.14 113.068 411.936 113.224C411.732 113.38 411.582 113.59 411.486 113.854H409.848C409.932 113.422 410.094 113.056 410.334 112.756C410.586 112.444 410.886 112.192 411.234 112C411.594 111.796 411.978 111.646 412.386 111.55C412.794 111.454 413.202 111.406 413.61 111.406C414.522 111.406 415.254 111.592 415.806 111.964C416.358 112.324 416.76 112.84 417.012 113.512C417.264 114.172 417.39 114.958 417.39 115.87V121H416.112L416.022 119.794C415.758 120.154 415.44 120.43 415.068 120.622C414.696 120.814 414.312 120.94 413.916 121C413.532 121.072 413.166 121.108 412.818 121.108ZM412.962 119.758C413.562 119.758 414.078 119.662 414.51 119.47C414.954 119.266 415.296 118.972 415.536 118.588C415.776 118.204 415.896 117.736 415.896 117.184V116.716H414.222C413.826 116.716 413.436 116.722 413.052 116.734C412.668 116.746 412.32 116.794 412.008 116.878C411.696 116.962 411.444 117.106 411.252 117.31C411.072 117.514 410.982 117.808 410.982 118.192C410.982 118.552 411.072 118.846 411.252 119.074C411.444 119.302 411.69 119.476 411.99 119.596C412.302 119.704 412.626 119.758 412.962 119.758ZM425.341 121V117.346C424.885 117.43 424.441 117.49 424.009 117.526C423.589 117.55 423.211 117.562 422.875 117.562C421.987 117.562 421.285 117.424 420.769 117.148C420.253 116.872 419.887 116.452 419.671 115.888C419.455 115.312 419.347 114.598 419.347 113.746V111.514H420.877V113.638C420.877 114.19 420.931 114.658 421.039 115.042C421.147 115.426 421.357 115.72 421.669 115.924C421.981 116.116 422.449 116.212 423.073 116.212C423.433 116.212 423.811 116.194 424.207 116.158C424.615 116.122 424.993 116.068 425.341 115.996V111.514H426.871V121H425.341ZM429.288 121V111.514H430.818V118.786C430.902 118.618 431.016 118.438 431.16 118.246C431.304 118.042 431.418 117.886 431.502 117.778L436.092 111.514H437.604V121H436.074V113.728C435.978 113.908 435.87 114.076 435.75 114.232C435.642 114.388 435.54 114.532 435.444 114.664L430.782 121H429.288Z" fill="white"/>
</svg>
