<svg width="624" height="130" viewBox="0 0 624 130" fill="none" xmlns="http://www.w3.org/2000/svg">
<circle cx="15" cy="15" r="15" fill="#ECECEC"/>
<path d="M16.3796 9.81818V20H15.1467V11.1108H15.087L12.6012 12.7614V11.5085L15.1467 9.81818H16.3796Z" fill="#475467"/>
<path d="M45.548 21V8.274H50.012C50.648 8.274 51.224 8.328 51.74 8.436C52.256 8.532 52.7 8.7 53.072 8.94C53.456 9.18 53.75 9.504 53.954 9.912C54.158 10.32 54.26 10.836 54.26 11.46C54.26 12.108 54.11 12.684 53.81 13.188C53.522 13.692 53.072 14.064 52.46 14.304C53.276 14.448 53.888 14.796 54.296 15.348C54.704 15.888 54.908 16.59 54.908 17.454C54.908 18.138 54.776 18.708 54.512 19.164C54.26 19.62 53.9 19.986 53.432 20.262C52.976 20.526 52.448 20.718 51.848 20.838C51.248 20.946 50.606 21 49.922 21H45.548ZM47.114 19.578H49.868C50.24 19.578 50.624 19.56 51.02 19.524C51.428 19.476 51.806 19.386 52.154 19.254C52.502 19.11 52.784 18.888 53 18.588C53.216 18.288 53.324 17.886 53.324 17.382C53.324 16.95 53.24 16.596 53.072 16.32C52.916 16.044 52.7 15.828 52.424 15.672C52.16 15.516 51.854 15.408 51.506 15.348C51.158 15.288 50.804 15.258 50.444 15.258H47.114V19.578ZM47.114 13.854H49.562C50.006 13.854 50.42 13.818 50.804 13.746C51.188 13.662 51.524 13.53 51.812 13.35C52.1 13.17 52.322 12.936 52.478 12.648C52.646 12.36 52.73 12 52.73 11.568C52.73 11.016 52.604 10.608 52.352 10.344C52.1 10.08 51.77 9.906 51.362 9.822C50.954 9.738 50.51 9.696 50.03 9.696H47.114V13.854ZM57.0009 21V11.514H58.5309V15.6H60.1869L62.9949 11.514H64.7409L61.5729 16.032L65.0109 21H63.2109L60.3669 16.932H58.5309V21H57.0009ZM65.4709 21.018V19.686C65.7109 19.686 65.9269 19.638 66.1189 19.542C66.3109 19.434 66.4789 19.278 66.6229 19.074C66.7909 18.834 66.9229 18.486 67.0189 18.03C67.1149 17.574 67.1809 17.088 67.2169 16.572C67.2649 15.996 67.3009 15.432 67.3249 14.88C67.3489 14.316 67.3669 13.758 67.3789 13.206C67.4029 12.654 67.4149 12.09 67.4149 11.514H74.0029V21H72.4729V12.864H68.9089C68.8969 13.272 68.8789 13.686 68.8549 14.106C68.8429 14.514 68.8249 14.928 68.8009 15.348C68.7889 15.756 68.7709 16.17 68.7469 16.59C68.7349 17.07 68.6869 17.61 68.6029 18.21C68.5189 18.81 68.3389 19.356 68.0629 19.848C67.7989 20.316 67.4749 20.628 67.0909 20.784C66.7189 20.94 66.1789 21.018 65.4709 21.018ZM84.0932 21.108C82.7012 21.108 81.6512 20.724 80.9432 19.956C80.2352 19.176 79.8332 18.168 79.7372 16.932H77.9372V21H76.4072V11.514H77.9372V15.6H79.7372C79.8092 14.772 80.0072 14.046 80.3312 13.422C80.6672 12.786 81.1472 12.294 81.7712 11.946C82.3952 11.586 83.1692 11.406 84.0932 11.406C85.1012 11.406 85.9352 11.616 86.5952 12.036C87.2552 12.456 87.7472 13.032 88.0712 13.764C88.3952 14.484 88.5572 15.318 88.5572 16.266C88.5572 17.202 88.3952 18.036 88.0712 18.768C87.7472 19.5 87.2552 20.076 86.5952 20.496C85.9352 20.904 85.1012 21.108 84.0932 21.108ZM84.0932 19.758C84.7892 19.758 85.3472 19.602 85.7672 19.29C86.1992 18.978 86.5172 18.558 86.7212 18.03C86.9252 17.502 87.0272 16.914 87.0272 16.266C87.0272 15.618 86.9252 15.03 86.7212 14.502C86.5172 13.974 86.1992 13.554 85.7672 13.242C85.3472 12.93 84.7892 12.774 84.0932 12.774C83.4092 12.774 82.8512 12.93 82.4192 13.242C81.9992 13.554 81.6932 13.974 81.5012 14.502C81.3092 15.03 81.2132 15.618 81.2132 16.266C81.2132 16.914 81.3092 17.502 81.5012 18.03C81.6932 18.558 81.9992 18.978 82.4192 19.29C82.8512 19.602 83.4092 19.758 84.0932 19.758ZM96.12 21V17.346C95.664 17.43 95.22 17.49 94.788 17.526C94.368 17.55 93.99 17.562 93.654 17.562C92.766 17.562 92.064 17.424 91.548 17.148C91.032 16.872 90.666 16.452 90.45 15.888C90.234 15.312 90.126 14.598 90.126 13.746V11.514H91.656V13.638C91.656 14.19 91.71 14.658 91.818 15.042C91.926 15.426 92.136 15.72 92.448 15.924C92.76 16.116 93.228 16.212 93.852 16.212C94.212 16.212 94.59 16.194 94.986 16.158C95.394 16.122 95.772 16.068 96.12 15.996V11.514H97.65V21H96.12ZM100.067 21V11.514H101.597V18.786C101.681 18.618 101.795 18.438 101.939 18.246C102.083 18.042 102.197 17.886 102.281 17.778L106.871 11.514H108.383V21H106.853V13.728C106.757 13.908 106.649 14.076 106.529 14.232C106.421 14.388 106.319 14.532 106.223 14.664L101.561 21H100.067ZM113.004 21V12.864H109.746V11.514H117.792V12.864H114.534V21H113.004ZM123.261 21.108C122.253 21.108 121.419 20.904 120.759 20.496C120.099 20.076 119.607 19.5 119.283 18.768C118.959 18.036 118.797 17.202 118.797 16.266C118.797 15.318 118.965 14.484 119.301 13.764C119.649 13.032 120.153 12.456 120.813 12.036C121.473 11.616 122.283 11.406 123.243 11.406C123.951 11.406 124.569 11.544 125.097 11.82C125.637 12.084 126.081 12.444 126.429 12.9C126.789 13.356 127.047 13.866 127.203 14.43C127.371 14.994 127.443 15.576 127.419 16.176C127.407 16.284 127.401 16.392 127.401 16.5C127.401 16.608 127.395 16.716 127.383 16.824H120.345C120.393 17.376 120.531 17.874 120.759 18.318C120.987 18.762 121.311 19.116 121.731 19.38C122.151 19.632 122.673 19.758 123.297 19.758C123.609 19.758 123.921 19.722 124.233 19.65C124.557 19.566 124.845 19.428 125.097 19.236C125.361 19.044 125.547 18.786 125.655 18.462H127.221C127.077 19.074 126.807 19.578 126.411 19.974C126.015 20.358 125.541 20.646 124.989 20.838C124.437 21.018 123.861 21.108 123.261 21.108ZM120.381 15.492H125.871C125.859 14.952 125.739 14.478 125.511 14.07C125.283 13.662 124.971 13.344 124.575 13.116C124.191 12.888 123.729 12.774 123.189 12.774C122.601 12.774 122.103 12.9 121.695 13.152C121.299 13.404 120.993 13.734 120.777 14.142C120.561 14.55 120.429 15 120.381 15.492ZM137.765 21.108C137.309 21.108 136.853 21.066 136.397 20.982C135.941 20.898 135.515 20.76 135.119 20.568C134.735 20.364 134.423 20.094 134.183 19.758C133.943 19.41 133.811 18.978 133.787 18.462H135.281C135.341 18.786 135.515 19.044 135.803 19.236C136.091 19.428 136.415 19.566 136.775 19.65C137.147 19.722 137.477 19.758 137.765 19.758C138.101 19.758 138.443 19.722 138.791 19.65C139.151 19.578 139.451 19.434 139.691 19.218C139.943 19.002 140.069 18.684 140.069 18.264C140.069 17.856 139.967 17.556 139.763 17.364C139.571 17.172 139.313 17.046 138.989 16.986C138.677 16.926 138.335 16.896 137.963 16.896H136.271V15.546H137.657C137.885 15.546 138.119 15.528 138.359 15.492C138.599 15.444 138.821 15.372 139.025 15.276C139.229 15.168 139.391 15.018 139.511 14.826C139.643 14.634 139.709 14.388 139.709 14.088C139.709 13.752 139.613 13.488 139.421 13.296C139.229 13.104 138.983 12.972 138.683 12.9C138.383 12.816 138.077 12.774 137.765 12.774C137.477 12.774 137.171 12.804 136.847 12.864C136.535 12.924 136.265 13.044 136.037 13.224C135.809 13.392 135.671 13.644 135.623 13.98H134.111C134.135 13.332 134.333 12.822 134.705 12.45C135.077 12.078 135.539 11.814 136.091 11.658C136.643 11.49 137.195 11.406 137.747 11.406C138.167 11.406 138.581 11.448 138.989 11.532C139.397 11.616 139.769 11.76 140.105 11.964C140.441 12.156 140.705 12.414 140.897 12.738C141.101 13.062 141.203 13.464 141.203 13.944C141.203 14.376 141.101 14.76 140.897 15.096C140.693 15.432 140.381 15.702 139.961 15.906C140.573 16.098 140.999 16.398 141.239 16.806C141.479 17.214 141.599 17.7 141.599 18.264C141.599 18.768 141.491 19.2 141.275 19.56C141.059 19.908 140.765 20.202 140.393 20.442C140.033 20.67 139.625 20.838 139.169 20.946C138.713 21.054 138.245 21.108 137.765 21.108ZM146.615 21.108C146.183 21.108 145.763 21.054 145.355 20.946C144.959 20.826 144.599 20.652 144.275 20.424C143.963 20.184 143.711 19.89 143.519 19.542C143.339 19.182 143.249 18.768 143.249 18.3C143.249 17.76 143.345 17.304 143.537 16.932C143.741 16.56 144.011 16.266 144.347 16.05C144.683 15.834 145.073 15.678 145.517 15.582C145.961 15.486 146.423 15.438 146.903 15.438H149.693C149.693 14.898 149.615 14.43 149.459 14.034C149.315 13.638 149.075 13.332 148.739 13.116C148.403 12.888 147.959 12.774 147.407 12.774C147.071 12.774 146.759 12.81 146.471 12.882C146.183 12.954 145.937 13.068 145.733 13.224C145.529 13.38 145.379 13.59 145.283 13.854H143.645C143.729 13.422 143.891 13.056 144.131 12.756C144.383 12.444 144.683 12.192 145.031 12C145.391 11.796 145.775 11.646 146.183 11.55C146.591 11.454 146.999 11.406 147.407 11.406C148.319 11.406 149.051 11.592 149.603 11.964C150.155 12.324 150.557 12.84 150.809 13.512C151.061 14.172 151.187 14.958 151.187 15.87V21H149.909L149.819 19.794C149.555 20.154 149.237 20.43 148.865 20.622C148.493 20.814 148.109 20.94 147.713 21C147.329 21.072 146.963 21.108 146.615 21.108ZM146.759 19.758C147.359 19.758 147.875 19.662 148.307 19.47C148.751 19.266 149.093 18.972 149.333 18.588C149.573 18.204 149.693 17.736 149.693 17.184V16.716H148.019C147.623 16.716 147.233 16.722 146.849 16.734C146.465 16.746 146.117 16.794 145.805 16.878C145.493 16.962 145.241 17.106 145.049 17.31C144.869 17.514 144.779 17.808 144.779 18.192C144.779 18.552 144.869 18.846 145.049 19.074C145.241 19.302 145.487 19.476 145.787 19.596C146.099 19.704 146.423 19.758 146.759 19.758ZM153.558 21V11.514H161.424V21H159.894V12.864H155.088V21H153.558ZM163.841 21V11.514H165.371V18.786C165.455 18.618 165.569 18.438 165.713 18.246C165.857 18.042 165.971 17.886 166.055 17.778L170.645 11.514H172.157V21H170.627V13.728C170.531 13.908 170.423 14.076 170.303 14.232C170.195 14.388 170.093 14.532 169.997 14.664L165.335 21H163.841ZM178.613 21.108C177.617 21.108 176.789 20.904 176.129 20.496C175.481 20.076 174.995 19.5 174.671 18.768C174.359 18.036 174.203 17.208 174.203 16.284C174.203 15.384 174.365 14.568 174.689 13.836C175.025 13.092 175.529 12.504 176.201 12.072C176.885 11.628 177.749 11.406 178.793 11.406C179.441 11.406 180.017 11.514 180.521 11.73C181.037 11.946 181.463 12.264 181.799 12.684C182.135 13.092 182.369 13.608 182.501 14.232H180.935C180.755 13.704 180.467 13.332 180.071 13.116C179.687 12.888 179.231 12.774 178.703 12.774C177.983 12.774 177.407 12.942 176.975 13.278C176.543 13.614 176.225 14.052 176.021 14.592C175.829 15.12 175.733 15.684 175.733 16.284C175.733 16.908 175.835 17.484 176.039 18.012C176.243 18.54 176.561 18.966 176.993 19.29C177.425 19.602 177.983 19.758 178.667 19.758C179.171 19.758 179.645 19.65 180.089 19.434C180.545 19.218 180.845 18.834 180.989 18.282H182.573C182.453 18.93 182.195 19.464 181.799 19.884C181.415 20.304 180.941 20.616 180.377 20.82C179.825 21.012 179.237 21.108 178.613 21.108ZM184.513 21V11.514H186.079V15.132H188.167C188.731 15.132 189.235 15.18 189.679 15.276C190.135 15.36 190.525 15.51 190.849 15.726C191.173 15.942 191.419 16.236 191.587 16.608C191.767 16.968 191.857 17.43 191.857 17.994C191.857 18.51 191.767 18.96 191.587 19.344C191.407 19.716 191.155 20.028 190.831 20.28C190.507 20.52 190.117 20.7 189.661 20.82C189.217 20.94 188.725 21 188.185 21H184.513ZM186.079 19.668H186.979C187.399 19.668 187.801 19.656 188.185 19.632C188.581 19.608 188.941 19.548 189.265 19.452C189.589 19.356 189.841 19.2 190.021 18.984C190.213 18.756 190.309 18.444 190.309 18.048C190.309 17.664 190.231 17.37 190.075 17.166C189.931 16.95 189.739 16.794 189.499 16.698C189.259 16.59 188.995 16.524 188.707 16.5C188.431 16.476 188.155 16.464 187.879 16.464H186.079V19.668Z" fill="#475467"/>
<circle cx="15" cy="65" r="15" fill="#ECECEC"/>
<path d="M11.8157 70V69.1051L15.1765 65.4261C15.5709 64.9953 15.8957 64.6207 16.1509 64.3026C16.4061 63.9811 16.5951 63.6795 16.7177 63.3977C16.8436 63.1127 16.9066 62.8144 16.9066 62.5028C16.9066 62.1449 16.8204 61.835 16.6481 61.5732C16.479 61.3113 16.247 61.1091 15.9521 60.9666C15.6571 60.8241 15.3256 60.7528 14.9577 60.7528C14.5666 60.7528 14.2253 60.834 13.9336 60.9964C13.6452 61.1555 13.4215 61.3793 13.2624 61.6676C13.1067 61.956 13.0288 62.294 13.0288 62.6818H11.8555C11.8555 62.0852 11.993 61.5616 12.2681 61.1108C12.5432 60.66 12.9177 60.3087 13.3917 60.0568C13.869 59.8049 14.4042 59.679 14.9975 59.679C15.5941 59.679 16.1228 59.8049 16.5835 60.0568C17.0442 60.3087 17.4054 60.6484 17.6673 61.076C17.9291 61.5036 18.06 61.9792 18.06 62.5028C18.06 62.8774 17.9921 63.2436 17.8562 63.6016C17.7236 63.9562 17.4916 64.3523 17.1602 64.7898C16.832 65.224 16.3763 65.7543 15.793 66.3807L13.506 68.8267V68.9062H18.239V70H11.8157Z" fill="#475467"/>
<path d="M45.566 71V58.274H55.574V71H54.008V59.696H47.132V71H45.566ZM62.4944 71.108C61.4984 71.108 60.6644 70.904 59.9924 70.496C59.3204 70.076 58.8164 69.5 58.4804 68.768C58.1564 68.036 57.9944 67.202 57.9944 66.266C57.9944 65.318 58.1564 64.484 58.4804 63.764C58.8164 63.032 59.3204 62.456 59.9924 62.036C60.6644 61.616 61.5104 61.406 62.5304 61.406C63.5264 61.406 64.3544 61.616 65.0144 62.036C65.6864 62.456 66.1844 63.032 66.5084 63.764C66.8444 64.484 67.0124 65.318 67.0124 66.266C67.0124 67.202 66.8444 68.036 66.5084 68.768C66.1724 69.5 65.6684 70.076 64.9964 70.496C64.3364 70.904 63.5024 71.108 62.4944 71.108ZM62.4944 69.758C63.1904 69.758 63.7544 69.602 64.1864 69.29C64.6304 68.978 64.9544 68.558 65.1584 68.03C65.3744 67.502 65.4824 66.914 65.4824 66.266C65.4824 65.618 65.3744 65.03 65.1584 64.502C64.9544 63.974 64.6304 63.554 64.1864 63.242C63.7544 62.93 63.1904 62.774 62.4944 62.774C61.8104 62.774 61.2464 62.93 60.8024 63.242C60.3704 63.554 60.0464 63.974 59.8304 64.502C59.6264 65.03 59.5244 65.618 59.5244 66.266C59.5244 66.914 59.6264 67.502 59.8304 68.03C60.0464 68.558 60.3704 68.978 60.8024 69.29C61.2464 69.602 61.8104 69.758 62.4944 69.758ZM68.1076 71.018V69.686C68.3476 69.686 68.5636 69.638 68.7556 69.542C68.9476 69.434 69.1156 69.278 69.2596 69.074C69.4276 68.834 69.5596 68.486 69.6556 68.03C69.7516 67.574 69.8176 67.088 69.8536 66.572C69.9016 65.996 69.9376 65.432 69.9616 64.88C69.9856 64.316 70.0036 63.758 70.0156 63.206C70.0396 62.654 70.0516 62.09 70.0516 61.514H76.6396V71H75.1096V62.864H71.5456C71.5336 63.272 71.5156 63.686 71.4916 64.106C71.4796 64.514 71.4616 64.928 71.4376 65.348C71.4256 65.756 71.4076 66.17 71.3836 66.59C71.3716 67.07 71.3236 67.61 71.2396 68.21C71.1556 68.81 70.9756 69.356 70.6996 69.848C70.4356 70.316 70.1116 70.628 69.7276 70.784C69.3556 70.94 68.8156 71.018 68.1076 71.018ZM79.3499 75.068V73.61C79.9379 73.61 80.4059 73.526 80.7539 73.358C81.1019 73.202 81.3899 72.95 81.6179 72.602C81.8579 72.266 82.0859 71.834 82.3019 71.306L78.1439 61.514H79.9439L83.1479 69.506L85.7759 61.514H87.5039L84.8399 68.984C84.7079 69.368 84.5579 69.8 84.3899 70.28C84.2219 70.76 84.0359 71.246 83.8319 71.738C83.6279 72.242 83.3999 72.704 83.1479 73.124C82.9079 73.556 82.6379 73.904 82.3379 74.168C82.0859 74.396 81.8399 74.576 81.5999 74.708C81.3599 74.84 81.0659 74.93 80.7179 74.978C80.3819 75.038 79.9259 75.068 79.3499 75.068ZM94.5028 71V67.346C94.0468 67.43 93.6028 67.49 93.1708 67.526C92.7508 67.55 92.3728 67.562 92.0368 67.562C91.1488 67.562 90.4468 67.424 89.9308 67.148C89.4148 66.872 89.0488 66.452 88.8328 65.888C88.6168 65.312 88.5088 64.598 88.5088 63.746V61.514H90.0388V63.638C90.0388 64.19 90.0928 64.658 90.2008 65.042C90.3088 65.426 90.5188 65.72 90.8308 65.924C91.1428 66.116 91.6108 66.212 92.2348 66.212C92.5948 66.212 92.9728 66.194 93.3688 66.158C93.7768 66.122 94.1548 66.068 94.5028 65.996V61.514H96.0328V71H94.5028ZM101.492 71.108C101.06 71.108 100.64 71.054 100.232 70.946C99.8361 70.826 99.4761 70.652 99.1521 70.424C98.8401 70.184 98.5881 69.89 98.3961 69.542C98.2161 69.182 98.1261 68.768 98.1261 68.3C98.1261 67.76 98.2221 67.304 98.4141 66.932C98.6181 66.56 98.8881 66.266 99.2241 66.05C99.5601 65.834 99.9501 65.678 100.394 65.582C100.838 65.486 101.3 65.438 101.78 65.438H104.57C104.57 64.898 104.492 64.43 104.336 64.034C104.192 63.638 103.952 63.332 103.616 63.116C103.28 62.888 102.836 62.774 102.284 62.774C101.948 62.774 101.636 62.81 101.348 62.882C101.06 62.954 100.814 63.068 100.61 63.224C100.406 63.38 100.256 63.59 100.16 63.854H98.5221C98.6061 63.422 98.7681 63.056 99.0081 62.756C99.2601 62.444 99.5601 62.192 99.9081 62C100.268 61.796 100.652 61.646 101.06 61.55C101.468 61.454 101.876 61.406 102.284 61.406C103.196 61.406 103.928 61.592 104.48 61.964C105.032 62.324 105.434 62.84 105.686 63.512C105.938 64.172 106.064 64.958 106.064 65.87V71H104.786L104.696 69.794C104.432 70.154 104.114 70.43 103.742 70.622C103.37 70.814 102.986 70.94 102.59 71C102.206 71.072 101.84 71.108 101.492 71.108ZM101.636 69.758C102.236 69.758 102.752 69.662 103.184 69.47C103.628 69.266 103.97 68.972 104.21 68.588C104.45 68.204 104.57 67.736 104.57 67.184V66.716H102.896C102.5 66.716 102.11 66.722 101.726 66.734C101.342 66.746 100.994 66.794 100.682 66.878C100.37 66.962 100.118 67.106 99.9261 67.31C99.7461 67.514 99.6561 67.808 99.6561 68.192C99.6561 68.552 99.7461 68.846 99.9261 69.074C100.118 69.302 100.364 69.476 100.664 69.596C100.976 69.704 101.3 69.758 101.636 69.758ZM108.435 71V61.514H109.965V68.786C110.049 68.618 110.163 68.438 110.307 68.246C110.451 68.042 110.565 67.886 110.649 67.778L115.239 61.514H116.751V71H115.221V63.728C115.125 63.908 115.017 64.076 114.897 64.232C114.789 64.388 114.687 64.532 114.591 64.664L109.929 71H108.435ZM112.719 60.182C111.771 60.182 111.027 59.978 110.487 59.57C109.959 59.162 109.683 58.568 109.659 57.788H111.063C111.087 58.208 111.243 58.514 111.531 58.706C111.831 58.898 112.233 58.994 112.737 58.994C113.241 58.994 113.637 58.898 113.925 58.706C114.225 58.514 114.387 58.208 114.411 57.788H115.815C115.803 58.304 115.671 58.742 115.419 59.102C115.167 59.462 114.813 59.732 114.357 59.912C113.901 60.092 113.355 60.182 112.719 60.182ZM121.371 71V62.864H118.113V61.514H126.159V62.864H122.901V71H121.371ZM131.628 71.108C130.62 71.108 129.786 70.904 129.126 70.496C128.466 70.076 127.974 69.5 127.65 68.768C127.326 68.036 127.164 67.202 127.164 66.266C127.164 65.318 127.332 64.484 127.668 63.764C128.016 63.032 128.52 62.456 129.18 62.036C129.84 61.616 130.65 61.406 131.61 61.406C132.318 61.406 132.936 61.544 133.464 61.82C134.004 62.084 134.448 62.444 134.796 62.9C135.156 63.356 135.414 63.866 135.57 64.43C135.738 64.994 135.81 65.576 135.786 66.176C135.774 66.284 135.768 66.392 135.768 66.5C135.768 66.608 135.762 66.716 135.75 66.824H128.712C128.76 67.376 128.898 67.874 129.126 68.318C129.354 68.762 129.678 69.116 130.098 69.38C130.518 69.632 131.04 69.758 131.664 69.758C131.976 69.758 132.288 69.722 132.6 69.65C132.924 69.566 133.212 69.428 133.464 69.236C133.728 69.044 133.914 68.786 134.022 68.462H135.588C135.444 69.074 135.174 69.578 134.778 69.974C134.382 70.358 133.908 70.646 133.356 70.838C132.804 71.018 132.228 71.108 131.628 71.108ZM128.748 65.492H134.238C134.226 64.952 134.106 64.478 133.878 64.07C133.65 63.662 133.338 63.344 132.942 63.116C132.558 62.888 132.096 62.774 131.556 62.774C130.968 62.774 130.47 62.9 130.062 63.152C129.666 63.404 129.36 63.734 129.144 64.142C128.928 64.55 128.796 65 128.748 65.492ZM146.834 71.108C145.838 71.108 145.004 70.904 144.332 70.496C143.66 70.076 143.156 69.5 142.82 68.768C142.496 68.036 142.334 67.202 142.334 66.266C142.334 65.318 142.496 64.484 142.82 63.764C143.156 63.032 143.66 62.456 144.332 62.036C145.004 61.616 145.85 61.406 146.87 61.406C147.866 61.406 148.694 61.616 149.354 62.036C150.026 62.456 150.524 63.032 150.848 63.764C151.184 64.484 151.352 65.318 151.352 66.266C151.352 67.202 151.184 68.036 150.848 68.768C150.512 69.5 150.008 70.076 149.336 70.496C148.676 70.904 147.842 71.108 146.834 71.108ZM146.834 69.758C147.53 69.758 148.094 69.602 148.526 69.29C148.97 68.978 149.294 68.558 149.498 68.03C149.714 67.502 149.822 66.914 149.822 66.266C149.822 65.618 149.714 65.03 149.498 64.502C149.294 63.974 148.97 63.554 148.526 63.242C148.094 62.93 147.53 62.774 146.834 62.774C146.15 62.774 145.586 62.93 145.142 63.242C144.71 63.554 144.386 63.974 144.17 64.502C143.966 65.03 143.864 65.618 143.864 66.266C143.864 66.914 143.966 67.502 144.17 68.03C144.386 68.558 144.71 68.978 145.142 69.29C145.586 69.602 146.15 69.758 146.834 69.758ZM155.613 71V62.864H152.355V61.514H160.401V62.864H157.143V71H155.613ZM161.767 71V61.514H165.439C165.859 61.514 166.273 61.544 166.681 61.604C167.101 61.652 167.479 61.76 167.815 61.928C168.163 62.084 168.439 62.318 168.643 62.63C168.859 62.942 168.967 63.356 168.967 63.872C168.967 64.184 168.919 64.472 168.823 64.736C168.727 64.988 168.583 65.21 168.391 65.402C168.211 65.594 167.977 65.762 167.689 65.906C168.337 66.05 168.805 66.332 169.093 66.752C169.381 67.172 169.525 67.652 169.525 68.192C169.525 68.672 169.435 69.092 169.255 69.452C169.087 69.8 168.847 70.088 168.535 70.316C168.235 70.544 167.881 70.718 167.473 70.838C167.077 70.946 166.651 71 166.195 71H161.767ZM163.333 69.668H165.835C166.207 69.668 166.555 69.632 166.879 69.56C167.203 69.488 167.467 69.356 167.671 69.164C167.875 68.96 167.977 68.672 167.977 68.3C167.977 67.916 167.887 67.628 167.707 67.436C167.539 67.232 167.317 67.094 167.041 67.022C166.777 66.938 166.489 66.89 166.177 66.878C165.865 66.866 165.571 66.86 165.295 66.86H163.333V69.668ZM163.333 65.564H164.647C164.887 65.564 165.163 65.552 165.475 65.528C165.799 65.504 166.111 65.45 166.411 65.366C166.723 65.27 166.975 65.126 167.167 64.934C167.371 64.742 167.473 64.478 167.473 64.142C167.473 63.698 167.347 63.392 167.095 63.224C166.855 63.044 166.567 62.942 166.231 62.918C165.895 62.882 165.583 62.864 165.295 62.864H163.333V65.564ZM175.714 71.108C174.706 71.108 173.872 70.904 173.212 70.496C172.552 70.076 172.06 69.5 171.736 68.768C171.412 68.036 171.25 67.202 171.25 66.266C171.25 65.318 171.418 64.484 171.754 63.764C172.102 63.032 172.606 62.456 173.266 62.036C173.926 61.616 174.736 61.406 175.696 61.406C176.404 61.406 177.022 61.544 177.55 61.82C178.09 62.084 178.534 62.444 178.882 62.9C179.242 63.356 179.5 63.866 179.656 64.43C179.824 64.994 179.896 65.576 179.872 66.176C179.86 66.284 179.854 66.392 179.854 66.5C179.854 66.608 179.848 66.716 179.836 66.824H172.798C172.846 67.376 172.984 67.874 173.212 68.318C173.44 68.762 173.764 69.116 174.184 69.38C174.604 69.632 175.126 69.758 175.75 69.758C176.062 69.758 176.374 69.722 176.686 69.65C177.01 69.566 177.298 69.428 177.55 69.236C177.814 69.044 178 68.786 178.108 68.462H179.674C179.53 69.074 179.26 69.578 178.864 69.974C178.468 70.358 177.994 70.646 177.442 70.838C176.89 71.018 176.314 71.108 175.714 71.108ZM172.834 65.492H178.324C178.312 64.952 178.192 64.478 177.964 64.07C177.736 63.662 177.424 63.344 177.028 63.116C176.644 62.888 176.182 62.774 175.642 62.774C175.054 62.774 174.556 62.9 174.148 63.152C173.752 63.404 173.446 63.734 173.23 64.142C173.014 64.55 172.882 65 172.834 65.492ZM184.143 71V62.864H180.885V61.514H188.931V62.864H185.673V71H184.143ZM190.296 71V61.514H191.862V65.132H193.572C194.136 65.132 194.646 65.18 195.102 65.276C195.558 65.372 195.948 65.528 196.272 65.744C196.596 65.96 196.842 66.254 197.01 66.626C197.178 66.986 197.262 67.442 197.262 67.994C197.262 68.522 197.172 68.978 196.992 69.362C196.812 69.746 196.554 70.058 196.218 70.298C195.894 70.538 195.504 70.718 195.048 70.838C194.604 70.946 194.118 71 193.59 71H190.296ZM191.862 69.668H192.366C192.786 69.668 193.194 69.662 193.59 69.65C193.986 69.626 194.34 69.566 194.652 69.47C194.976 69.374 195.234 69.218 195.426 69.002C195.618 68.774 195.714 68.456 195.714 68.048C195.714 67.664 195.636 67.37 195.48 67.166C195.336 66.95 195.144 66.794 194.904 66.698C194.664 66.59 194.4 66.524 194.112 66.5C193.836 66.476 193.56 66.464 193.284 66.464H191.862V69.668ZM198.576 71V61.514H200.106V71H198.576ZM207.364 71V61.514H208.894V65.672H213.646V61.514H215.176V71H213.646V67.022H208.894V71H207.364ZM220.637 71.108C220.205 71.108 219.785 71.054 219.377 70.946C218.981 70.826 218.621 70.652 218.297 70.424C217.985 70.184 217.733 69.89 217.541 69.542C217.361 69.182 217.271 68.768 217.271 68.3C217.271 67.76 217.367 67.304 217.559 66.932C217.763 66.56 218.033 66.266 218.369 66.05C218.705 65.834 219.095 65.678 219.539 65.582C219.983 65.486 220.445 65.438 220.925 65.438H223.715C223.715 64.898 223.637 64.43 223.481 64.034C223.337 63.638 223.097 63.332 222.761 63.116C222.425 62.888 221.981 62.774 221.429 62.774C221.093 62.774 220.781 62.81 220.493 62.882C220.205 62.954 219.959 63.068 219.755 63.224C219.551 63.38 219.401 63.59 219.305 63.854H217.667C217.751 63.422 217.913 63.056 218.153 62.756C218.405 62.444 218.705 62.192 219.053 62C219.413 61.796 219.797 61.646 220.205 61.55C220.613 61.454 221.021 61.406 221.429 61.406C222.341 61.406 223.073 61.592 223.625 61.964C224.177 62.324 224.579 62.84 224.831 63.512C225.083 64.172 225.209 64.958 225.209 65.87V71H223.931L223.841 69.794C223.577 70.154 223.259 70.43 222.887 70.622C222.515 70.814 222.131 70.94 221.735 71C221.351 71.072 220.985 71.108 220.637 71.108ZM220.781 69.758C221.381 69.758 221.897 69.662 222.329 69.47C222.773 69.266 223.115 68.972 223.355 68.588C223.595 68.204 223.715 67.736 223.715 67.184V66.716H222.041C221.645 66.716 221.255 66.722 220.871 66.734C220.487 66.746 220.139 66.794 219.827 66.878C219.515 66.962 219.263 67.106 219.071 67.31C218.891 67.514 218.801 67.808 218.801 68.192C218.801 68.552 218.891 68.846 219.071 69.074C219.263 69.302 219.509 69.476 219.809 69.596C220.121 69.704 220.445 69.758 220.781 69.758ZM232.431 71V61.514H236.103C236.523 61.514 236.937 61.544 237.345 61.604C237.765 61.652 238.143 61.76 238.479 61.928C238.827 62.084 239.103 62.318 239.307 62.63C239.523 62.942 239.631 63.356 239.631 63.872C239.631 64.184 239.583 64.472 239.487 64.736C239.391 64.988 239.247 65.21 239.055 65.402C238.875 65.594 238.641 65.762 238.353 65.906C239.001 66.05 239.469 66.332 239.757 66.752C240.045 67.172 240.189 67.652 240.189 68.192C240.189 68.672 240.099 69.092 239.919 69.452C239.751 69.8 239.511 70.088 239.199 70.316C238.899 70.544 238.545 70.718 238.137 70.838C237.741 70.946 237.315 71 236.859 71H232.431ZM233.997 69.668H236.499C236.871 69.668 237.219 69.632 237.543 69.56C237.867 69.488 238.131 69.356 238.335 69.164C238.539 68.96 238.641 68.672 238.641 68.3C238.641 67.916 238.551 67.628 238.371 67.436C238.203 67.232 237.981 67.094 237.705 67.022C237.441 66.938 237.153 66.89 236.841 66.878C236.529 66.866 236.235 66.86 235.959 66.86H233.997V69.668ZM233.997 65.564H235.311C235.551 65.564 235.827 65.552 236.139 65.528C236.463 65.504 236.775 65.45 237.075 65.366C237.387 65.27 237.639 65.126 237.831 64.934C238.035 64.742 238.137 64.478 238.137 64.142C238.137 63.698 238.011 63.392 237.759 63.224C237.519 63.044 237.231 62.942 236.895 62.918C236.559 62.882 236.247 62.864 235.959 62.864H233.997V65.564ZM246.414 71.108C245.418 71.108 244.584 70.904 243.912 70.496C243.24 70.076 242.736 69.5 242.4 68.768C242.076 68.036 241.914 67.202 241.914 66.266C241.914 65.318 242.076 64.484 242.4 63.764C242.736 63.032 243.24 62.456 243.912 62.036C244.584 61.616 245.43 61.406 246.45 61.406C247.446 61.406 248.274 61.616 248.934 62.036C249.606 62.456 250.104 63.032 250.428 63.764C250.764 64.484 250.932 65.318 250.932 66.266C250.932 67.202 250.764 68.036 250.428 68.768C250.092 69.5 249.588 70.076 248.916 70.496C248.256 70.904 247.422 71.108 246.414 71.108ZM246.414 69.758C247.11 69.758 247.674 69.602 248.106 69.29C248.55 68.978 248.874 68.558 249.078 68.03C249.294 67.502 249.402 66.914 249.402 66.266C249.402 65.618 249.294 65.03 249.078 64.502C248.874 63.974 248.55 63.554 248.106 63.242C247.674 62.93 247.11 62.774 246.414 62.774C245.73 62.774 245.166 62.93 244.722 63.242C244.29 63.554 243.966 63.974 243.75 64.502C243.546 65.03 243.444 65.618 243.444 66.266C243.444 66.914 243.546 67.502 243.75 68.03C243.966 68.558 244.29 68.978 244.722 69.29C245.166 69.602 245.73 69.758 246.414 69.758ZM252.979 71V61.514H260.845V71H259.315V62.864H254.509V71H252.979ZM263.263 74.42V61.514H264.721L264.793 62.972C265.117 62.456 265.555 62.066 266.107 61.802C266.671 61.538 267.277 61.406 267.925 61.406C268.885 61.406 269.671 61.622 270.283 62.054C270.895 62.474 271.345 63.05 271.633 63.782C271.933 64.514 272.083 65.342 272.083 66.266C272.083 67.19 271.933 68.018 271.633 68.75C271.333 69.482 270.871 70.058 270.247 70.478C269.623 70.898 268.825 71.108 267.853 71.108C267.373 71.108 266.941 71.06 266.557 70.964C266.173 70.856 265.837 70.706 265.549 70.514C265.261 70.322 265.009 70.106 264.793 69.866V74.42H263.263ZM267.727 69.758C268.423 69.758 268.975 69.602 269.383 69.29C269.791 68.966 270.085 68.54 270.265 68.012C270.457 67.484 270.553 66.902 270.553 66.266C270.553 65.618 270.457 65.03 270.265 64.502C270.085 63.974 269.785 63.554 269.365 63.242C268.945 62.93 268.387 62.774 267.691 62.774C267.067 62.774 266.533 62.936 266.089 63.26C265.657 63.572 265.327 63.998 265.099 64.538C264.871 65.066 264.757 65.648 264.757 66.284C264.757 66.944 264.865 67.538 265.081 68.066C265.297 68.594 265.627 69.008 266.071 69.308C266.515 69.608 267.067 69.758 267.727 69.758ZM278.196 71.108C277.2 71.108 276.366 70.904 275.694 70.496C275.022 70.076 274.518 69.5 274.182 68.768C273.858 68.036 273.696 67.202 273.696 66.266C273.696 65.318 273.858 64.484 274.182 63.764C274.518 63.032 275.022 62.456 275.694 62.036C276.366 61.616 277.212 61.406 278.232 61.406C279.228 61.406 280.056 61.616 280.716 62.036C281.388 62.456 281.886 63.032 282.21 63.764C282.546 64.484 282.714 65.318 282.714 66.266C282.714 67.202 282.546 68.036 282.21 68.768C281.874 69.5 281.37 70.076 280.698 70.496C280.038 70.904 279.204 71.108 278.196 71.108ZM278.196 69.758C278.892 69.758 279.456 69.602 279.888 69.29C280.332 68.978 280.656 68.558 280.86 68.03C281.076 67.502 281.184 66.914 281.184 66.266C281.184 65.618 281.076 65.03 280.86 64.502C280.656 63.974 280.332 63.554 279.888 63.242C279.456 62.93 278.892 62.774 278.196 62.774C277.512 62.774 276.948 62.93 276.504 63.242C276.072 63.554 275.748 63.974 275.532 64.502C275.328 65.03 275.226 65.618 275.226 66.266C275.226 66.914 275.328 67.502 275.532 68.03C275.748 68.558 276.072 68.978 276.504 69.29C276.948 69.602 277.512 69.758 278.196 69.758ZM288.811 71.108C287.815 71.108 286.987 70.904 286.327 70.496C285.679 70.076 285.193 69.5 284.869 68.768C284.557 68.036 284.401 67.208 284.401 66.284C284.401 65.384 284.563 64.568 284.887 63.836C285.223 63.092 285.727 62.504 286.399 62.072C287.083 61.628 287.947 61.406 288.991 61.406C289.639 61.406 290.215 61.514 290.719 61.73C291.235 61.946 291.661 62.264 291.997 62.684C292.333 63.092 292.567 63.608 292.699 64.232H291.133C290.953 63.704 290.665 63.332 290.269 63.116C289.885 62.888 289.429 62.774 288.901 62.774C288.181 62.774 287.605 62.942 287.173 63.278C286.741 63.614 286.423 64.052 286.219 64.592C286.027 65.12 285.931 65.684 285.931 66.284C285.931 66.908 286.033 67.484 286.237 68.012C286.441 68.54 286.759 68.966 287.191 69.29C287.623 69.602 288.181 69.758 288.865 69.758C289.369 69.758 289.843 69.65 290.287 69.434C290.743 69.218 291.043 68.834 291.187 68.282H292.771C292.651 68.93 292.393 69.464 291.997 69.884C291.613 70.304 291.139 70.616 290.575 70.82C290.023 71.012 289.435 71.108 288.811 71.108ZM294.71 71V61.514H296.276V65.132H297.986C298.55 65.132 299.06 65.18 299.516 65.276C299.972 65.372 300.362 65.528 300.686 65.744C301.01 65.96 301.256 66.254 301.424 66.626C301.592 66.986 301.676 67.442 301.676 67.994C301.676 68.522 301.586 68.978 301.406 69.362C301.226 69.746 300.968 70.058 300.632 70.298C300.308 70.538 299.918 70.718 299.462 70.838C299.018 70.946 298.532 71 298.004 71H294.71ZM296.276 69.668H296.78C297.2 69.668 297.608 69.662 298.004 69.65C298.4 69.626 298.754 69.566 299.066 69.47C299.39 69.374 299.648 69.218 299.84 69.002C300.032 68.774 300.128 68.456 300.128 68.048C300.128 67.664 300.05 67.37 299.894 67.166C299.75 66.95 299.558 66.794 299.318 66.698C299.078 66.59 298.814 66.524 298.526 66.5C298.25 66.476 297.974 66.464 297.698 66.464H296.276V69.668ZM302.99 71V61.514H304.52V71H302.99ZM311.778 71V61.514H315.45C315.87 61.514 316.284 61.544 316.692 61.604C317.112 61.652 317.49 61.76 317.826 61.928C318.174 62.084 318.45 62.318 318.654 62.63C318.87 62.942 318.978 63.356 318.978 63.872C318.978 64.184 318.93 64.472 318.834 64.736C318.738 64.988 318.594 65.21 318.402 65.402C318.222 65.594 317.988 65.762 317.7 65.906C318.348 66.05 318.816 66.332 319.104 66.752C319.392 67.172 319.536 67.652 319.536 68.192C319.536 68.672 319.446 69.092 319.266 69.452C319.098 69.8 318.858 70.088 318.546 70.316C318.246 70.544 317.892 70.718 317.484 70.838C317.088 70.946 316.662 71 316.206 71H311.778ZM313.344 69.668H315.846C316.218 69.668 316.566 69.632 316.89 69.56C317.214 69.488 317.478 69.356 317.682 69.164C317.886 68.96 317.988 68.672 317.988 68.3C317.988 67.916 317.898 67.628 317.718 67.436C317.55 67.232 317.328 67.094 317.052 67.022C316.788 66.938 316.5 66.89 316.188 66.878C315.876 66.866 315.582 66.86 315.306 66.86H313.344V69.668ZM313.344 65.564H314.658C314.898 65.564 315.174 65.552 315.486 65.528C315.81 65.504 316.122 65.45 316.422 65.366C316.734 65.27 316.986 65.126 317.178 64.934C317.382 64.742 317.484 64.478 317.484 64.142C317.484 63.698 317.358 63.392 317.106 63.224C316.866 63.044 316.578 62.942 316.242 62.918C315.906 62.882 315.594 62.864 315.306 62.864H313.344V65.564ZM332.054 71V67.346C331.598 67.43 331.154 67.49 330.722 67.526C330.302 67.55 329.924 67.562 329.588 67.562C328.7 67.562 327.998 67.424 327.482 67.148C326.966 66.872 326.6 66.452 326.384 65.888C326.168 65.312 326.06 64.598 326.06 63.746V61.514H327.59V63.638C327.59 64.19 327.644 64.658 327.752 65.042C327.86 65.426 328.07 65.72 328.382 65.924C328.694 66.116 329.162 66.212 329.786 66.212C330.146 66.212 330.524 66.194 330.92 66.158C331.328 66.122 331.706 66.068 332.054 65.996V61.514H333.584V71H332.054ZM339.043 71.108C338.611 71.108 338.191 71.054 337.783 70.946C337.387 70.826 337.027 70.652 336.703 70.424C336.391 70.184 336.139 69.89 335.947 69.542C335.767 69.182 335.677 68.768 335.677 68.3C335.677 67.76 335.773 67.304 335.965 66.932C336.169 66.56 336.439 66.266 336.775 66.05C337.111 65.834 337.501 65.678 337.945 65.582C338.389 65.486 338.851 65.438 339.331 65.438H342.121C342.121 64.898 342.043 64.43 341.887 64.034C341.743 63.638 341.503 63.332 341.167 63.116C340.831 62.888 340.387 62.774 339.835 62.774C339.499 62.774 339.187 62.81 338.899 62.882C338.611 62.954 338.365 63.068 338.161 63.224C337.957 63.38 337.807 63.59 337.711 63.854H336.073C336.157 63.422 336.319 63.056 336.559 62.756C336.811 62.444 337.111 62.192 337.459 62C337.819 61.796 338.203 61.646 338.611 61.55C339.019 61.454 339.427 61.406 339.835 61.406C340.747 61.406 341.479 61.592 342.031 61.964C342.583 62.324 342.985 62.84 343.237 63.512C343.489 64.172 343.615 64.958 343.615 65.87V71H342.337L342.247 69.794C341.983 70.154 341.665 70.43 341.293 70.622C340.921 70.814 340.537 70.94 340.141 71C339.757 71.072 339.391 71.108 339.043 71.108ZM339.187 69.758C339.787 69.758 340.303 69.662 340.735 69.47C341.179 69.266 341.521 68.972 341.761 68.588C342.001 68.204 342.121 67.736 342.121 67.184V66.716H340.447C340.051 66.716 339.661 66.722 339.277 66.734C338.893 66.746 338.545 66.794 338.233 66.878C337.921 66.962 337.669 67.106 337.477 67.31C337.297 67.514 337.207 67.808 337.207 68.192C337.207 68.552 337.297 68.846 337.477 69.074C337.669 69.302 337.915 69.476 338.215 69.596C338.527 69.704 338.851 69.758 339.187 69.758ZM348.199 71V62.864H344.941V61.514H352.987V62.864H349.729V71H348.199ZM358.456 71.108C357.448 71.108 356.614 70.904 355.954 70.496C355.294 70.076 354.802 69.5 354.478 68.768C354.154 68.036 353.992 67.202 353.992 66.266C353.992 65.318 354.16 64.484 354.496 63.764C354.844 63.032 355.348 62.456 356.008 62.036C356.668 61.616 357.478 61.406 358.438 61.406C359.146 61.406 359.764 61.544 360.292 61.82C360.832 62.084 361.276 62.444 361.624 62.9C361.984 63.356 362.242 63.866 362.398 64.43C362.566 64.994 362.638 65.576 362.614 66.176C362.602 66.284 362.596 66.392 362.596 66.5C362.596 66.608 362.59 66.716 362.578 66.824H355.54C355.588 67.376 355.726 67.874 355.954 68.318C356.182 68.762 356.506 69.116 356.926 69.38C357.346 69.632 357.868 69.758 358.492 69.758C358.804 69.758 359.116 69.722 359.428 69.65C359.752 69.566 360.04 69.428 360.292 69.236C360.556 69.044 360.742 68.786 360.85 68.462H362.416C362.272 69.074 362.002 69.578 361.606 69.974C361.21 70.358 360.736 70.646 360.184 70.838C359.632 71.018 359.056 71.108 358.456 71.108ZM355.576 65.492H361.066C361.054 64.952 360.934 64.478 360.706 64.07C360.478 63.662 360.166 63.344 359.77 63.116C359.386 62.888 358.924 62.774 358.384 62.774C357.796 62.774 357.298 62.9 356.89 63.152C356.494 63.404 356.188 63.734 355.972 64.142C355.756 64.55 355.624 65 355.576 65.492Z" fill="#475467"/>
<circle cx="15" cy="115" r="15" fill="#ECECEC"/>
<path d="M15.0373 120.139C14.381 120.139 13.796 120.027 13.2823 119.801C12.7719 119.576 12.3659 119.263 12.0643 118.862C11.766 118.457 11.6036 117.988 11.5771 117.455H12.8299C12.8564 117.783 12.9691 118.066 13.168 118.305C13.3668 118.54 13.627 118.722 13.9485 118.852C14.27 118.981 14.6263 119.045 15.0174 119.045C15.4549 119.045 15.8427 118.969 16.1808 118.817C16.5188 118.664 16.784 118.452 16.9762 118.18C17.1684 117.909 17.2646 117.594 17.2646 117.236C17.2646 116.861 17.1718 116.531 16.9862 116.246C16.8005 115.958 16.5288 115.733 16.1708 115.57C15.8129 115.408 15.3754 115.327 14.8583 115.327H14.043V114.233H14.8583C15.2627 114.233 15.6173 114.16 15.9222 114.014C16.2305 113.868 16.4708 113.663 16.6431 113.398C16.8188 113.133 16.9066 112.821 16.9066 112.463C16.9066 112.118 16.8304 111.818 16.6779 111.563C16.5254 111.308 16.31 111.109 16.0316 110.967C15.7565 110.824 15.4317 110.753 15.0572 110.753C14.7058 110.753 14.3744 110.817 14.0629 110.947C13.7546 111.073 13.5027 111.257 13.3072 111.499C13.1116 111.737 13.0056 112.026 12.989 112.364H11.7958C11.8157 111.83 11.9764 111.363 12.2781 110.962C12.5797 110.557 12.9741 110.242 13.4613 110.017C13.9518 109.792 14.4904 109.679 15.0771 109.679C15.7068 109.679 16.247 109.807 16.6978 110.062C17.1486 110.314 17.4949 110.647 17.7369 111.061C17.9788 111.475 18.0998 111.923 18.0998 112.403C18.0998 112.977 17.949 113.466 17.6474 113.87C17.3491 114.274 16.9431 114.554 16.4293 114.71V114.79C17.0723 114.896 17.5745 115.169 17.9357 115.61C18.297 116.048 18.4776 116.589 18.4776 117.236C18.4776 117.789 18.3268 118.286 18.0252 118.727C17.7269 119.165 17.3192 119.509 16.8022 119.761C16.2852 120.013 15.6969 120.139 15.0373 120.139Z" fill="#475467"/>
<path d="M45.566 121V108.274H49.976C50.912 108.274 51.716 108.43 52.388 108.742C53.06 109.042 53.57 109.504 53.918 110.128C54.278 110.752 54.458 111.544 54.458 112.504C54.458 113.44 54.248 114.232 53.828 114.88C53.42 115.516 52.856 115.996 52.136 116.32C51.416 116.644 50.588 116.806 49.652 116.806H47.132V121H45.566ZM47.132 115.384H49.58C50.552 115.384 51.338 115.156 51.938 114.7C52.55 114.232 52.856 113.476 52.856 112.432C52.856 111.52 52.61 110.836 52.118 110.38C51.626 109.924 50.888 109.696 49.904 109.696H47.132V115.384ZM59.3222 121.108C58.8902 121.108 58.4702 121.054 58.0622 120.946C57.6662 120.826 57.3062 120.652 56.9822 120.424C56.6702 120.184 56.4182 119.89 56.2262 119.542C56.0462 119.182 55.9562 118.768 55.9562 118.3C55.9562 117.76 56.0522 117.304 56.2442 116.932C56.4482 116.56 56.7182 116.266 57.0542 116.05C57.3902 115.834 57.7802 115.678 58.2242 115.582C58.6682 115.486 59.1302 115.438 59.6102 115.438H62.4002C62.4002 114.898 62.3222 114.43 62.1662 114.034C62.0222 113.638 61.7822 113.332 61.4462 113.116C61.1102 112.888 60.6662 112.774 60.1142 112.774C59.7782 112.774 59.4662 112.81 59.1782 112.882C58.8902 112.954 58.6442 113.068 58.4402 113.224C58.2362 113.38 58.0862 113.59 57.9902 113.854H56.3522C56.4362 113.422 56.5982 113.056 56.8382 112.756C57.0902 112.444 57.3902 112.192 57.7382 112C58.0982 111.796 58.4822 111.646 58.8902 111.55C59.2982 111.454 59.7062 111.406 60.1142 111.406C61.0262 111.406 61.7582 111.592 62.3102 111.964C62.8622 112.324 63.2642 112.84 63.5162 113.512C63.7682 114.172 63.8942 114.958 63.8942 115.87V121H62.6162L62.5262 119.794C62.2622 120.154 61.9442 120.43 61.5722 120.622C61.2002 120.814 60.8162 120.94 60.4202 121C60.0362 121.072 59.6702 121.108 59.3222 121.108ZM59.4662 119.758C60.0662 119.758 60.5822 119.662 61.0142 119.47C61.4582 119.266 61.8002 118.972 62.0402 118.588C62.2802 118.204 62.4002 117.736 62.4002 117.184V116.716H60.7262C60.3302 116.716 59.9402 116.722 59.5562 116.734C59.1722 116.746 58.8242 116.794 58.5122 116.878C58.2002 116.962 57.9482 117.106 57.7562 117.31C57.5762 117.514 57.4862 117.808 57.4862 118.192C57.4862 118.552 57.5762 118.846 57.7562 119.074C57.9482 119.302 58.1942 119.476 58.4942 119.596C58.8062 119.704 59.1302 119.758 59.4662 119.758ZM65.4546 123.916V119.668C65.8026 119.668 66.0786 119.572 66.2826 119.38C66.4986 119.188 66.6666 118.936 66.7866 118.624C66.9066 118.312 66.9966 117.976 67.0566 117.616C67.1166 117.244 67.1646 116.89 67.2006 116.554C67.2606 116.002 67.2966 115.456 67.3086 114.916C67.3326 114.364 67.3446 113.926 67.3446 113.602C67.3566 113.254 67.3626 112.906 67.3626 112.558C67.3626 112.21 67.3626 111.862 67.3626 111.514H74.0946V119.668H75.3366V123.916H73.8606V121H66.9306V123.916H65.4546ZM67.8846 119.668H72.5646V112.864H68.8206C68.8086 113.368 68.7966 113.932 68.7846 114.556C68.7726 115.18 68.7486 115.762 68.7126 116.302C68.7006 116.614 68.6706 116.968 68.6226 117.364C68.5866 117.76 68.5146 118.162 68.4066 118.57C68.2986 118.966 68.1246 119.332 67.8846 119.668ZM77.2405 125.068V123.61C77.8285 123.61 78.2965 123.526 78.6445 123.358C78.9925 123.202 79.2805 122.95 79.5085 122.602C79.7485 122.266 79.9765 121.834 80.1925 121.306L76.0345 111.514H77.8345L81.0385 119.506L83.6665 111.514H85.3945L82.7305 118.984C82.5985 119.368 82.4485 119.8 82.2805 120.28C82.1125 120.76 81.9265 121.246 81.7225 121.738C81.5185 122.242 81.2905 122.704 81.0385 123.124C80.7985 123.556 80.5285 123.904 80.2285 124.168C79.9765 124.396 79.7305 124.576 79.4905 124.708C79.2505 124.84 78.9565 124.93 78.6085 124.978C78.2725 125.038 77.8165 125.068 77.2405 125.068ZM86.8134 121V111.514H88.3434V118.786C88.4274 118.618 88.5414 118.438 88.6854 118.246C88.8294 118.042 88.9434 117.886 89.0274 117.778L93.6174 111.514H95.1294V121H93.5994V113.728C93.5034 113.908 93.3954 114.076 93.2754 114.232C93.1674 114.388 93.0654 114.532 92.9694 114.664L88.3074 121H86.8134ZM91.0974 110.182C90.1494 110.182 89.4054 109.978 88.8654 109.57C88.3374 109.162 88.0614 108.568 88.0374 107.788H89.4414C89.4654 108.208 89.6214 108.514 89.9094 108.706C90.2094 108.898 90.6114 108.994 91.1154 108.994C91.6194 108.994 92.0154 108.898 92.3034 108.706C92.6034 108.514 92.7654 108.208 92.7894 107.788H94.1934C94.1814 108.304 94.0494 108.742 93.7974 109.102C93.5454 109.462 93.1914 109.732 92.7354 109.912C92.2794 110.092 91.7334 110.182 91.0974 110.182ZM99.7501 121V112.864H96.4921V111.514H104.538V112.864H101.28V121H99.7501ZM110.007 121.108C108.999 121.108 108.165 120.904 107.505 120.496C106.845 120.076 106.353 119.5 106.029 118.768C105.705 118.036 105.543 117.202 105.543 116.266C105.543 115.318 105.711 114.484 106.047 113.764C106.395 113.032 106.899 112.456 107.559 112.036C108.219 111.616 109.029 111.406 109.989 111.406C110.697 111.406 111.315 111.544 111.843 111.82C112.383 112.084 112.827 112.444 113.175 112.9C113.535 113.356 113.793 113.866 113.949 114.43C114.117 114.994 114.189 115.576 114.165 116.176C114.153 116.284 114.147 116.392 114.147 116.5C114.147 116.608 114.141 116.716 114.129 116.824H107.091C107.139 117.376 107.277 117.874 107.505 118.318C107.733 118.762 108.057 119.116 108.477 119.38C108.897 119.632 109.419 119.758 110.043 119.758C110.355 119.758 110.667 119.722 110.979 119.65C111.303 119.566 111.591 119.428 111.843 119.236C112.107 119.044 112.293 118.786 112.401 118.462H113.967C113.823 119.074 113.553 119.578 113.157 119.974C112.761 120.358 112.287 120.646 111.735 120.838C111.183 121.018 110.607 121.108 110.007 121.108ZM107.127 115.492H112.617C112.605 114.952 112.485 114.478 112.257 114.07C112.029 113.662 111.717 113.344 111.321 113.116C110.937 112.888 110.475 112.774 109.935 112.774C109.347 112.774 108.849 112.9 108.441 113.152C108.045 113.404 107.739 113.734 107.523 114.142C107.307 114.55 107.175 115 107.127 115.492ZM120.272 121.108C119.276 121.108 118.448 120.904 117.788 120.496C117.14 120.076 116.654 119.5 116.33 118.768C116.018 118.036 115.862 117.208 115.862 116.284C115.862 115.384 116.024 114.568 116.348 113.836C116.684 113.092 117.188 112.504 117.86 112.072C118.544 111.628 119.408 111.406 120.452 111.406C121.1 111.406 121.676 111.514 122.18 111.73C122.696 111.946 123.122 112.264 123.458 112.684C123.794 113.092 124.028 113.608 124.16 114.232H122.594C122.414 113.704 122.126 113.332 121.73 113.116C121.346 112.888 120.89 112.774 120.362 112.774C119.642 112.774 119.066 112.942 118.634 113.278C118.202 113.614 117.884 114.052 117.68 114.592C117.488 115.12 117.392 115.684 117.392 116.284C117.392 116.908 117.494 117.484 117.698 118.012C117.902 118.54 118.22 118.966 118.652 119.29C119.084 119.602 119.642 119.758 120.326 119.758C120.83 119.758 121.304 119.65 121.748 119.434C122.204 119.218 122.504 118.834 122.648 118.282H124.232C124.112 118.93 123.854 119.464 123.458 119.884C123.074 120.304 122.6 120.616 122.036 120.82C121.484 121.012 120.896 121.108 120.272 121.108ZM126.171 121V111.514H127.737V115.132H129.825C130.389 115.132 130.893 115.18 131.337 115.276C131.793 115.36 132.183 115.51 132.507 115.726C132.831 115.942 133.077 116.236 133.245 116.608C133.425 116.968 133.515 117.43 133.515 117.994C133.515 118.51 133.425 118.96 133.245 119.344C133.065 119.716 132.813 120.028 132.489 120.28C132.165 120.52 131.775 120.7 131.319 120.82C130.875 120.94 130.383 121 129.843 121H126.171ZM127.737 119.668H128.637C129.057 119.668 129.459 119.656 129.843 119.632C130.239 119.608 130.599 119.548 130.923 119.452C131.247 119.356 131.499 119.2 131.679 118.984C131.871 118.756 131.967 118.444 131.967 118.048C131.967 117.664 131.889 117.37 131.733 117.166C131.589 116.95 131.397 116.794 131.157 116.698C130.917 116.59 130.653 116.524 130.365 116.5C130.089 116.476 129.813 116.464 129.537 116.464H127.737V119.668ZM136.081 117.04L135.865 108.274H137.611L137.395 117.04H136.081ZM136.747 121.144C136.543 121.144 136.357 121.096 136.189 121C136.033 120.916 135.907 120.79 135.811 120.622C135.727 120.454 135.685 120.268 135.685 120.064C135.685 119.848 135.727 119.662 135.811 119.506C135.907 119.338 136.033 119.212 136.189 119.128C136.357 119.032 136.543 118.984 136.747 118.984C137.047 118.984 137.299 119.086 137.503 119.29C137.719 119.494 137.827 119.752 137.827 120.064C137.827 120.268 137.779 120.454 137.683 120.622C137.587 120.79 137.455 120.916 137.287 121C137.131 121.096 136.951 121.144 136.747 121.144Z" fill="#475467"/>
</svg>
