<svg width="20" height="20" viewBox="0 0 20 20" fill="none" xmlns="http://www.w3.org/2000/svg">
<g clip-path="url(#clip0_571_1114)">
<path d="M10 20C15.5228 20 20 15.5228 20 10C20 4.47715 15.5228 0 10 0C4.47715 0 0 4.47715 0 10C0 15.5228 4.47715 20 10 20Z" fill="url(#paint0_linear_571_1114)"/>
<path d="M8.16665 14.5832C7.84265 14.5832 7.89773 14.4608 7.78598 14.1523L6.83331 11.0171L14.1666 6.6665" fill="#C8DAEA"/>
<path d="M8.16669 14.5831C8.41669 14.5831 8.5271 14.4688 8.66669 14.3331L10 13.0366L8.33685 12.0337" fill="#A9C9DD"/>
<path d="M8.33695 12.0343L12.367 15.0117C12.8269 15.2655 13.1587 15.1341 13.2733 14.5848L14.9137 6.85456C15.0816 6.18122 14.657 5.87572 14.217 6.07547L4.58454 9.78972C3.92704 10.0535 3.93095 10.4203 4.4647 10.5837L6.93662 11.3553L12.6594 7.74489C12.9295 7.58105 13.1775 7.66906 12.974 7.84972" fill="url(#paint1_linear_571_1114)"/>
</g>
<defs>
<linearGradient id="paint0_linear_571_1114" x1="13.34" y1="3.34" x2="8.34" y2="15" gradientUnits="userSpaceOnUse">
<stop stop-color="#6D6D6D"/>
<stop offset="1" stop-color="#474747"/>
</linearGradient>
<linearGradient id="paint1_linear_571_1114" x1="11.2539" y1="10.0009" x2="12.8146" y2="13.5567" gradientUnits="userSpaceOnUse">
<stop stop-color="#EFF7FC"/>
<stop offset="1" stop-color="white"/>
</linearGradient>
<clipPath id="clip0_571_1114">
<rect width="20" height="20" fill="white"/>
</clipPath>
</defs>
</svg>
